<svg xmlns="http://www.w3.org/2000/svg" xmlns:xlink="http://www.w3.org/1999/xlink" width="532" height="183.251" viewBox="0 0 532 183.251">
  <defs>
    <linearGradient id="linear-gradient" x1="1.058" y1="0.532" x2="0.013" y2="0.526" gradientUnits="objectBoundingBox">
      <stop offset="0" stop-color="#a1de64"/>
      <stop offset="1" stop-color="#3fc26f"/>
    </linearGradient>
    <filter id="Path_62" x="46.366" y="26.568" width="389.718" height="136.044" filterUnits="userSpaceOnUse">
      <feOffset dy="3" input="SourceAlpha"/>
      <feGaussianBlur stdDeviation="3" result="blur"/>
      <feFlood flood-opacity="0.161"/>
      <feComposite operator="in" in2="blur"/>
      <feComposite in="SourceGraphic"/>
    </filter>
  </defs>
  <g id="catchcopy_mobile" transform="translate(0 -447)">
    <path id="Path_1" data-name="Path 1" d="M0,0H532L427.557,183.251H0Z" transform="translate(0 447)" opacity="0.82" fill="url(#linear-gradient)"/>
    <g transform="matrix(1, 0, 0, 1, 0, 447)" filter="url(#Path_62)">
      <path id="Path_62-2" data-name="Path 62" d="M16.058-7.326a19.5,19.5,0,0,1-.3-3.552q0-2,.185-4.144a24.789,24.789,0,0,1,4.736-.74Q19.943-10.064,16.058-7.326ZM8.991-3.589Q7.178-3.848,7.215-6.142q-.037-5.254,5.994-8.066-.148,1.813-.148,4.218a29.928,29.928,0,0,0,.37,4.7A9.729,9.729,0,0,1,8.991-3.589Zm4.995.666.925,2.7,2.812-1.924L16.5-4.255a17.094,17.094,0,0,0,7.067-11.211,2.679,2.679,0,0,1,.888.111q5.4,2.035,5.4,6.771,0,5.994-10.36,7.141L21.09,1.295A23.087,23.087,0,0,0,25.567.333q7.141-2.516,7.252-8.806v-.111a10.278,10.278,0,0,0-1.073-4.662q-2.035-4.107-7.807-4.884l.333-2.664-3.219-.629a13.108,13.108,0,0,1,.074,1.443q0,.814-.037,1.517h-.555a44.05,44.05,0,0,0-4.477.629,40.6,40.6,0,0,1,.407-5.032q3.626-.222,11.137-1l.407-3.034a67.94,67.94,0,0,1-11.137,1.443,26.036,26.036,0,0,1,.814-4.514l-3.034-.407-.592,5.069q-2.442.111-4.44.111a9.224,9.224,0,0,1-3.441-.592v3.034a33.464,33.464,0,0,0,3.367.148q1.924,0,4.107-.111-.407,3.959-.407,5.735-8.88,3.4-8.88,10.545Q4.4-.925,8.843-.925A10.587,10.587,0,0,0,13.986-2.923ZM51.245-4.551q0-1.739,4.255-1.739a10.062,10.062,0,0,1,4.033.74q-.111.629-.185,1Q58.9-2.368,55.056-2.368,51.245-2.368,51.245-4.551Zm11.063-.333,2.4.925a7.638,7.638,0,0,1,2.849,2.331l2.4-2.109a20.159,20.159,0,0,0-3.7-2.257,25.566,25.566,0,0,0-3.774-1.517v-7.955l.222-2.442L59.237-18.5l.37,2.923v7.363a13.669,13.669,0,0,0-4.551-.7q-6.66,0-6.66,4.477,0,4.884,6.66,4.884h.074Q61.272.444,62.308-4.884ZM68.82-16.5l2-2.294a30.417,30.417,0,0,0-3.256-2.96,18.388,18.388,0,0,0-4.477-2.775l-1.591,2.072a28.012,28.012,0,0,1,4.07,2.405A11.934,11.934,0,0,1,68.82-16.5ZM40.4-9.694l3,1.85a51.317,51.317,0,0,0,6.4-13.838q2.775-.074,8.584-.777l.185-2.738q-6.327.888-8.1,1.036l1.591-5.957-3.33-.444-.407,2.59q-.222,1.443-.777,3.811-2.59.111-4.144.111H41.07l.259,2.812q2.183-.074,5.365-.407A40.843,40.843,0,0,1,40.4-9.694ZM107.411-.3V-3.663l-.777.185A45.773,45.773,0,0,1,100.085-3q-7.437,0-7.437-2.442a3.253,3.253,0,0,1,2.22-3.108l-1.406-1.739a5.2,5.2,0,0,0-3.478,5.069q0,5.032,10.508,5.032h3.589Q106.449-.185,107.411-.3ZM106.153-15.91v-3.071a18.371,18.371,0,0,0-2.96-.185,37.264,37.264,0,0,0-11.581,1.554l.333,2.442a40.986,40.986,0,0,1,8.584-1.258A27.636,27.636,0,0,1,106.153-15.91ZM77.4.333l3.256.7a113.129,113.129,0,0,0,7.474-23.2q6.179-.222,11.211-.777v-3.182a61.991,61.991,0,0,1-10.952,1.11l1.036-5.476a15.773,15.773,0,0,1-3.034-.259q.037.592.037,1.961A17.321,17.321,0,0,1,85.8-24.9q-1.3.111-3.848.111t-4.329-.037l.7,2.886q3.33,0,6.808-.148Q81.918-8.4,77.4.333Zm52.54-.222q.3,0,.851-.037,12.543-1.147,12.58-14.208a12.652,12.652,0,0,0-3-8.362,11.9,11.9,0,0,0-9.583-4.255h-.407a13.06,13.06,0,0,0-5.032.962,14.809,14.809,0,0,0-5.661,4.07q-4.4,4.995-4.44,10.249,0,8.88,3.959,8.88,7.622-.074,12.1-21.719a8.585,8.585,0,0,1,7.77,4.921,10.784,10.784,0,0,1,1.369,5.365q0,6.216-4.07,9.25a10.031,10.031,0,0,1-5.809,1.554h-.925a7.067,7.067,0,0,1-1.739-.259Zm-5.254-22.57a8.224,8.224,0,0,1,3.885-1.406Q124.1-5.439,119.51-5.439q-1.517,0-1.517-6.29Q117.993-17.982,124.69-22.459ZM174.1-41.86a1.77,1.77,0,0,1,.052-.572l-4.992.312a18.6,18.6,0,0,1,.52,2.444l.78,7.7-14.352,1.248q-.728.052-2.548.052l.468,4.524a12.357,12.357,0,0,1,2.5-.52l14.352-1.3.936,9.2L154.708-16.9q-1.664.156-2.08.156h-.468l.728,4.368a9.834,9.834,0,0,1,2.34-.468l17-1.924,1.508,14.4q.1,1.872.1,2.912l4.94-.416a9.743,9.743,0,0,1-.52-2.5l-1.508-14.924,16.536-1.872,2.288-.1-.52-4.42a9.2,9.2,0,0,1-2.236.572l-16.484,1.82L175.4-28.34l13.832-1.248q.78-.052,1.4-.052t1.144.052l-.468-4.524a12.132,12.132,0,0,1-2.444.52L175.04-32.4Q174.1-41.34,174.1-41.86ZM231.72-10.452l10.348-13.78-2.86-2.756L219.76-23.556l-2.184-8.268-3.848,1.092,2.132,7.956-10.608,1.82,1.144,4,10.4-2.028,5.72,21.944,3.8-1.144L220.7-19.76l14.872-2.756-8.112,10.868ZM258.5-18.46l-.156,2.288,4.576.624a10.527,10.527,0,0,1-.26-2.34V-37.44a6.661,6.661,0,0,1,.26-1.976l-4.576-1.3a18.11,18.11,0,0,1,.156,2.444Zm4.68,15.7,3.588,4.212q19.24-7.072,19.24-21.788v-17.94a4.942,4.942,0,0,1,.208-1.352l-4.576-1.352a9.882,9.882,0,0,1,.312,2.756v15.6Q281.952-6.448,263.18-2.756Zm39.364-35.568q-2.132-.26-2.86-.364l1.4,4.524q2.548-.208,3.328-.208l30.94-.052a34.751,34.751,0,0,1-11.8,12.636l2.912,3.588q10.14-8.58,13.728-16.9.364-.416.728-.78L336.6-39.312l-.884.988Zm19.448,10.088-4.784-.832a21.087,21.087,0,0,1,.208,2.548v1.2q-1.4,18.876-13.26,22.828l3.38,3.588q13-5.876,13.832-26.416A13.53,13.53,0,0,1,321.992-28.236Zm41.623,14.065q-9.4,4.514-9.4,8.288,0,5.4,6.068,6.4a34.412,34.412,0,0,0,5.291.333q3.182,0,7.733-.407l.185-3.589a42.615,42.615,0,0,1-7.807,1.036,42.764,42.764,0,0,1-5.143-.3q-3.034-.37-3.034-3.034,0-2.183,4.958-4.995,1-.481,1.924-.888a17.1,17.1,0,0,1,.111,2.146,21.87,21.87,0,0,1-.37,3.441l3.293-.555a48.955,48.955,0,0,0-.444-6.142q6.4-2.738,9.1-2.923l-1.7-3.071a82.934,82.934,0,0,0-8.1,3.071q-.222-.518-.444-.962a5.869,5.869,0,0,0-5.365-3.034,5.48,5.48,0,0,0-1.813.3,37.453,37.453,0,0,0,1.776-3.774,98.842,98.842,0,0,0,10.582-1l-.037-3.182q-2.22,1-8.029,1.369l-1.48.148a45.925,45.925,0,0,0,1.517-5.7l-3.145-.7a43.078,43.078,0,0,1-1.776,6.549h-1.11q-4.514,0-5.772-.518l.259,3.367q.444-.037,5.55-.185a30.921,30.921,0,0,1-7.252,10.138l2.738,2a43.256,43.256,0,0,0,4.07-5.032,7.862,7.862,0,0,1,4.033-1.332Q362.394-16.909,363.615-14.171ZM26,52.264Q24.076,68.956,11.492,71.608L15.34,75.56q13.312-5.252,15.132-23.3H46.228a5.845,5.845,0,0,1,1.508.208V47.9a7.605,7.605,0,0,1-2.6.26H6.084a9.287,9.287,0,0,1-1.716-.26v4.628a15.516,15.516,0,0,1,3.016-.26Zm7.228-16.536H12.376a1.939,1.939,0,0,1-1.248-.26v4.368q.208-.26,2.548-.26H33.228a11.519,11.519,0,0,1,2.548.26V35.468A7.367,7.367,0,0,1,33.228,35.728Zm2.652-2.912A19.5,19.5,0,0,1,40.2,42.384l3.484-1.248A19.616,19.616,0,0,0,39,32.088Zm9.62-1.872-3.276.78a17,17,0,0,1,4.316,9.568l3.432-1.248A21.647,21.647,0,0,0,45.5,30.944Zm40.768.208a19.916,19.916,0,0,1,4.368,9.62l3.484-1.3a19.66,19.66,0,0,0-4.836-9.2Zm9.516-1.976-3.172.884a16.824,16.824,0,0,1,4.368,9.568l3.432-1.248A22,22,0,0,0,95.784,29.176ZM51.116,42.436l.78,4.628a13.547,13.547,0,0,1,3.068-.26h8.164V58.556a12.05,12.05,0,0,1-.26,2.34h4.42a17.758,17.758,0,0,1-.208-2.7V46.648H80.652v6.084q0,14.924-17.056,18.46l3.276,3.744Q84.708,70.1,84.708,55.02V46.6h9.88l2.288.1-.52-4.524a4.538,4.538,0,0,1-2.392.52l-9.256.052V33.8a10.413,10.413,0,0,1,.26-2.5l-4.576-.728a11.72,11.72,0,0,1,.26,2.5v9.672H67.08v-8.84a14.092,14.092,0,0,1,.208-2.6l-4.42-.728a13.258,13.258,0,0,1,.26,2.7v9.464h-9.62A4.812,4.812,0,0,1,51.116,42.436Zm71.656,7.956.312,1.508V73.064a10.021,10.021,0,0,1-.26,2.5h4.628a11.26,11.26,0,0,1-.26-2.5V51.588l-.884-2.08.1-1.2A100.989,100.989,0,0,0,140.3,37.652q1.716-1.716,2.652-2.6H143l-4.368-3.016q0,1.4-2.184,3.588-16.536,14.456-33.7,18.148l2.028,4.264,5.2-1.716A101.027,101.027,0,0,0,122.772,50.392Zm44.356-5.772a53.573,53.573,0,0,0-10.92-9.412L152.88,38.64q7.488,5.044,10.712,9.568ZM153.4,71.088l2.756,4.524q24.076-5.356,35.36-31.252l1.04-2.028-4.94-1.456a7.532,7.532,0,0,1-.624,2.236Q182,54.5,175.084,61,164.112,70.36,153.4,71.088Zm64.367-11.333v2.479q-.222,2.294-2.923,2.294-2.738,0-2.738-3.7,0-3.737,3-3.737l.037.037A2.322,2.322,0,0,1,217.767,59.755Zm-16.5-10.767.814,3.071,15.688-.444v4.107a4.543,4.543,0,0,0-2.553-1.11,6.125,6.125,0,0,0-2.627.814,5.736,5.736,0,0,0-2.553,2.627,7.464,7.464,0,0,0-.962,3.4,5.5,5.5,0,0,0,1.48,3.367,4.472,4.472,0,0,0,3.7,2.072,7.034,7.034,0,0,0,3.774-.962q-.74,6.068-8.288,7.141l2.22,2.479q8.51-1.369,9.25-11.1.074-1.3.074-2.368a9.658,9.658,0,0,0-.592-4V51.5l11.1-.444V47.915a62.291,62.291,0,0,1-11.1,1.073V47.212a12.013,12.013,0,0,1,.333-2.849l-3.626-.518a9.185,9.185,0,0,1,.37,2.442V49.1l-5.143.148q-5.143.148-7.955.148A8.033,8.033,0,0,1,201.265,48.988Zm61.309,15.577q0,4.255-4.218,6.142a6.364,6.364,0,0,0-2.886-4.773,6.763,6.763,0,0,0-3.774-1.11q-7.067,0-7.067,4.958.074,4.884,7.881,4.884a20.7,20.7,0,0,0,4.144-.518,12.8,12.8,0,0,0,7.511-4.44A8.478,8.478,0,0,0,265.9,64.75a7.037,7.037,0,0,0-1.813-4.625q-2.775-3.071-9.583-3.071a10.7,10.7,0,0,0-4.514,1.443l11.655-9.879L259.1,46.139a33.837,33.837,0,0,1-7.918.7,45.57,45.57,0,0,1-7.918-.518l.3,3.256,4.255-.037q5.513-.259,9.25-.629a67.943,67.943,0,0,1-12.8,10.73,26.8,26.8,0,0,1-5.328,3.034l2.886,2.775a35.945,35.945,0,0,1,4.366-3.441,12.68,12.68,0,0,1,7.363-2.627Q262.574,59.385,262.574,64.565Zm-10.73,2.849q3.219,0,3.774,2.516,0,.185.185,1.554a12.218,12.218,0,0,1-3.478.592q-4.7,0-4.7-2.479Q247.663,67.414,251.844,67.414Z" transform="translate(51 75)" fill="#fff"/>
    </g>
  </g>
</svg>
