<svg xmlns="http://www.w3.org/2000/svg" xmlns:xlink="http://www.w3.org/1999/xlink" width="751.374" height="245" viewBox="0 0 751.374 245">
  <defs>
    <linearGradient id="linear-gradient" x1="1.058" y1="0.532" x2="0.013" y2="0.526" gradientUnits="objectBoundingBox">
      <stop offset="0" stop-color="#a1de64"/>
      <stop offset="1" stop-color="#3fc26f"/>
    </linearGradient>
    <filter id="catchcopy_letteronly" x="178.872" y="49.672" width="474.968" height="147.428" filterUnits="userSpaceOnUse">
      <feOffset dy="3" input="SourceAlpha"/>
      <feGaussianBlur stdDeviation="3" result="blur"/>
      <feFlood flood-opacity="0.161"/>
      <feComposite operator="in" in2="blur"/>
      <feComposite in="SourceGraphic"/>
    </filter>
  </defs>
  <g id="catchcopy" transform="translate(0 -220)">
    <path id="Path_1" data-name="Path 1" d="M0,0H751.374L611.738,245H0Z" transform="translate(0 220)" opacity="0.82" fill="url(#linear-gradient)"/>
    <g transform="matrix(1, 0, 0, 1, 0, 220)" filter="url(#catchcopy_letteronly)">
      <path id="catchcopy_letteronly-2" data-name="catchcopy_letteronly" d="M21.7-9.9a26.349,26.349,0,0,1-.4-4.8q0-2.7.25-5.6a33.5,33.5,0,0,1,6.4-1Q26.95-13.6,21.7-9.9ZM12.15-4.85Q9.7-5.2,9.75-8.3q-.05-7.1,8.1-10.9-.2,2.45-.2,5.7a40.443,40.443,0,0,0,.5,6.35Q14.3-4.85,12.15-4.85Zm6.75.9L20.15-.3l3.8-2.6L22.3-5.75A23.1,23.1,0,0,0,31.85-20.9a3.621,3.621,0,0,1,1.2.15q7.3,2.75,7.3,9.15,0,8.1-14,9.65l2.15,3.7A31.2,31.2,0,0,0,34.55.45q9.65-3.4,9.8-11.9v-.15a13.889,13.889,0,0,0-1.45-6.3q-2.75-5.55-10.55-6.6l.45-3.6-4.35-.85a17.714,17.714,0,0,1,.1,1.95q0,1.1-.05,2.05h-.75a59.528,59.528,0,0,0-6.05.85,54.86,54.86,0,0,1,.55-6.8q4.9-.3,15.05-1.35l.55-4.1A91.812,91.812,0,0,1,22.8-34.4a35.184,35.184,0,0,1,1.1-6.1l-4.1-.55L19-34.2q-3.3.15-6,.15a12.464,12.464,0,0,1-4.65-.8v4.1a45.222,45.222,0,0,0,4.55.2q2.6,0,5.55-.15-.55,5.35-.55,7.75-12,4.6-12,14.25.05,7.45,6.05,7.45Q14.75-1.3,18.9-3.95Zm50.35-2.2Q69.25-8.5,75-8.5a13.6,13.6,0,0,1,5.45,1q-.15.85-.25,1.35Q79.6-3.2,74.4-3.2,69.25-3.2,69.25-6.15ZM84.2-6.6l3.25,1.25A10.321,10.321,0,0,1,91.3-2.2l3.25-2.85a27.242,27.242,0,0,0-5-3.05,34.549,34.549,0,0,0-5.1-2.05V-20.9l.3-3.3-4.7-.8.5,3.95v9.95a18.472,18.472,0,0,0-6.15-.95q-9,0-9,6.05,0,6.6,9,6.6h.1Q82.8.6,84.2-6.6ZM93-22.3l2.7-3.1a41.1,41.1,0,0,0-4.4-4,24.849,24.849,0,0,0-6.05-3.75l-2.15,2.8a37.854,37.854,0,0,1,5.5,3.25A16.128,16.128,0,0,1,93-22.3ZM54.6-13.1l4.05,2.5A69.348,69.348,0,0,0,67.3-29.3q3.75-.1,11.6-1.05l.25-3.7q-8.55,1.2-10.95,1.4l2.15-8.05-4.5-.6-.55,3.5q-.3,1.95-1.05,5.15-3.5.15-5.6.15H55.5l.35,3.8q2.95-.1,7.25-.55A55.193,55.193,0,0,1,54.6-13.1ZM145.15-.4V-4.95l-1.05.25a61.856,61.856,0,0,1-8.85.65q-10.05,0-10.05-3.3-.05-2.8,3-4.2l-1.9-2.35q-4.7,2.05-4.7,6.85,0,6.8,14.2,6.8h4.85Q143.85-.25,145.15-.4Zm-1.7-21.1v-4.15a24.826,24.826,0,0,0-4-.25,50.357,50.357,0,0,0-15.65,2.1l.45,3.3a55.387,55.387,0,0,1,11.6-1.7A37.346,37.346,0,0,1,143.45-21.5ZM104.6.45l4.4.95q5.85-12.4,10.1-31.35,8.35-.3,15.15-1.05v-4.3q-3.7,1-14.8,1.5l1.4-7.4a21.315,21.315,0,0,1-4.1-.35q.05.8.05,2.65a23.406,23.406,0,0,1-.85,5.25q-1.75.15-5.2.15t-5.85-.05l.95,3.9q4.5,0,9.2-.2Q110.7-11.35,104.6.45Zm71-.3q.4,0,1.15-.05,16.95-1.55,17-19.2a17.1,17.1,0,0,0-4.05-11.3,16.084,16.084,0,0,0-12.95-5.75h-.55a17.649,17.649,0,0,0-6.8,1.3,20.012,20.012,0,0,0-7.65,5.5q-5.95,6.75-6,13.85,0,12,5.35,12,10.3-.1,16.35-29.35,6.9.1,10.5,6.65a14.573,14.573,0,0,1,1.85,7.25q0,8.4-5.5,12.5a13.555,13.555,0,0,1-7.85,2.1H175.2a9.55,9.55,0,0,1-2.35-.35Zm-7.1-30.5a11.114,11.114,0,0,1,5.25-1.9Q167.7-7.35,161.5-7.35q-2.05,0-2.05-8.5Q159.45-24.3,168.5-30.35Zm60.616-16.34a1.975,1.975,0,0,1,.058-.638l-5.568.348a20.744,20.744,0,0,1,.58,2.726l.87,8.584-16.008,1.392q-.812.058-2.842.058l.522,5.046a13.782,13.782,0,0,1,2.784-.58L225.52-31.2l1.044,10.266L207.482-18.85q-1.856.174-2.32.174h-.522l.812,4.872a10.968,10.968,0,0,1,2.61-.522l18.966-2.146L228.71-.406q.116,2.088.116,3.248l5.51-.464a10.866,10.866,0,0,1-.58-2.784l-1.682-16.646,18.444-2.088,2.552-.116-.58-4.93a10.262,10.262,0,0,1-2.494.638l-18.386,2.03L230.566-31.61,245.994-33q.87-.058,1.566-.058t1.276.058l-.522-5.046a13.531,13.531,0,0,1-2.726.58L230.16-36.134Q229.116-46.11,229.116-46.69ZM293.38-11.658l11.542-15.37-3.19-3.074L280.04-26.274,277.6-35.5l-4.292,1.218L275.69-25.4l-11.832,2.03,1.276,4.466,11.6-2.262,6.38,24.476,4.234-1.276-6.264-24.07,16.588-3.074-9.048,12.122Zm29.87-8.932-.174,2.552,5.1.7a11.74,11.74,0,0,1-.29-2.61V-41.76a7.428,7.428,0,0,1,.29-2.2l-5.1-1.45a20.2,20.2,0,0,1,.174,2.726Zm5.22,17.516,4,4.7q21.46-7.888,21.46-24.3v-20.01a5.512,5.512,0,0,1,.232-1.508l-5.1-1.508a11.022,11.022,0,0,1,.348,3.074v17.4Q349.408-7.192,328.47-3.074Zm43.906-39.672q-2.378-.29-3.19-.406l1.566,5.046q2.842-.232,3.712-.232l34.51-.058A38.76,38.76,0,0,1,395.808-24.3l3.248,4q11.31-9.57,15.312-18.85.406-.464.812-.87l-4.814-3.828-.986,1.1Zm21.692,11.252-5.336-.928a23.516,23.516,0,0,1,.232,2.842v1.334Q387.4-7.192,374.174-2.784l3.77,4q14.5-6.554,15.428-29.464A15.091,15.091,0,0,1,394.068-31.494ZM444.99-19.15q-12.7,6.1-12.7,11.2,0,7.3,8.2,8.65a46.5,46.5,0,0,0,7.15.45q4.3,0,10.45-.55l.25-4.85a57.589,57.589,0,0,1-10.55,1.4,57.79,57.79,0,0,1-6.95-.4q-4.1-.5-4.1-4.1,0-2.95,6.7-6.75,1.35-.65,2.6-1.2a23.1,23.1,0,0,1,.15,2.9,29.554,29.554,0,0,1-.5,4.65l4.45-.75a66.156,66.156,0,0,0-.6-8.3q8.65-3.7,12.3-3.95l-2.3-4.15a112.073,112.073,0,0,0-10.95,4.15q-.3-.7-.6-1.3a7.931,7.931,0,0,0-7.25-4.1,7.405,7.405,0,0,0-2.45.4,50.628,50.628,0,0,0,2.4-5.1,133.572,133.572,0,0,0,14.3-1.35l-.05-4.3q-3,1.35-10.85,1.85l-2,.2a62.054,62.054,0,0,0,2.05-7.7l-4.25-.95a58.212,58.212,0,0,1-2.4,8.85h-1.5q-6.1,0-7.8-.7l.35,4.55q.6-.05,7.5-.25a41.784,41.784,0,0,1-9.8,13.7l3.7,2.7a58.453,58.453,0,0,0,5.5-6.8,10.625,10.625,0,0,1,5.45-1.8Q443.34-22.85,444.99-19.15ZM29,55.756Q26.854,74.374,12.818,77.332L17.11,81.74q14.848-5.858,16.878-25.984H51.562a6.519,6.519,0,0,1,1.682.232v-5.1a8.482,8.482,0,0,1-2.9.29H6.786a10.359,10.359,0,0,1-1.914-.29v5.162a17.306,17.306,0,0,1,3.364-.29Zm8.062-18.444H13.8a2.162,2.162,0,0,1-1.392-.29v4.872q.232-.29,2.842-.29H37.062a12.848,12.848,0,0,1,2.842.29V37.022A8.217,8.217,0,0,1,37.062,37.312Zm2.958-3.248a21.745,21.745,0,0,1,4.814,10.672l3.886-1.392A21.88,21.88,0,0,0,43.5,33.252Zm10.73-2.088-3.654.87A18.962,18.962,0,0,1,51.91,43.518l3.828-1.392A24.145,24.145,0,0,0,50.75,31.976Zm45.472.232a22.213,22.213,0,0,1,4.872,10.73l3.886-1.45a21.928,21.928,0,0,0-5.394-10.266ZM106.836,30l-3.538.986a18.765,18.765,0,0,1,4.872,10.672L112,40.27A24.542,24.542,0,0,0,106.836,30ZM57.014,44.794l.87,5.162a15.11,15.11,0,0,1,3.422-.29h9.106V62.774a13.441,13.441,0,0,1-.29,2.61h4.93a19.807,19.807,0,0,1-.232-3.016V49.492H89.958v6.786q0,16.646-19.024,20.59l3.654,4.176Q94.482,75.65,94.482,58.83v-9.4H105.5l2.552.116-.58-5.046a5.061,5.061,0,0,1-2.668.58l-10.324.058V35.166a11.614,11.614,0,0,1,.29-2.784l-5.1-.812a13.073,13.073,0,0,1,.29,2.784V45.142H74.82v-9.86a15.717,15.717,0,0,1,.232-2.9l-4.93-.812a14.788,14.788,0,0,1,.29,3.016V45.142H59.682Q57.362,45.142,57.014,44.794Zm79.924,8.874.348,1.682V78.956A11.176,11.176,0,0,1,137,81.74h5.162a12.56,12.56,0,0,1-.29-2.784V55l-.986-2.32L141,51.348a112.642,112.642,0,0,0,15.486-11.89q1.914-1.914,2.958-2.9h.058l-4.872-3.364q0,1.566-2.436,4Q133.748,53.32,114.608,57.438l2.262,4.756,5.8-1.914Q126.788,58.946,136.938,53.668Zm49.474-6.438a59.755,59.755,0,0,0-12.18-10.5L170.52,40.56q8.352,5.626,11.948,10.672ZM171.1,76.752l3.074,5.046q26.854-5.974,39.44-34.858l1.16-2.262-5.51-1.624a8.4,8.4,0,0,1-.7,2.494Q203,58.25,195.286,65.5,183.048,75.94,171.1,76.752Zm76.43-16V64.1q-.3,3.1-3.95,3.1-3.7,0-3.7-5,0-5.05,4.05-5.05l.05.05Q247.53,57.2,247.53,60.75ZM225.23,46.2l1.1,4.15,21.2-.6V55.3a6.139,6.139,0,0,0-3.45-1.5,8.277,8.277,0,0,0-3.55,1.1,7.75,7.75,0,0,0-3.45,3.55,10.087,10.087,0,0,0-1.3,4.6,7.431,7.431,0,0,0,2,4.55,6.043,6.043,0,0,0,5,2.8,9.506,9.506,0,0,0,5.1-1.3q-1,8.2-11.2,9.65l3,3.35q11.5-1.85,12.5-15,.1-1.75.1-3.2a13.051,13.051,0,0,0-.8-5.4V49.6l15-.6V44.75a84.176,84.176,0,0,1-15,1.45V43.8a16.233,16.233,0,0,1,.45-3.85l-4.9-.7a12.412,12.412,0,0,1,.5,3.3v3.8l-6.95.2q-6.95.2-10.75.2T225.23,46.2Zm82.85,21.05q0,5.75-5.7,8.3a8.6,8.6,0,0,0-3.9-6.45,9.14,9.14,0,0,0-5.1-1.5q-9.55,0-9.55,6.7.1,6.6,10.65,6.6a27.966,27.966,0,0,0,5.6-.7,17.3,17.3,0,0,0,10.15-6,11.456,11.456,0,0,0,2.35-6.7,9.51,9.51,0,0,0-2.45-6.25q-3.75-4.15-12.95-4.15a14.459,14.459,0,0,0-6.1,1.95L306.83,45.7l-3.45-3.35a45.725,45.725,0,0,1-10.7.95,61.581,61.581,0,0,1-10.7-.7l.4,4.4,5.75-.05q7.45-.35,12.5-.85a91.814,91.814,0,0,1-17.3,14.5q-5.25,3.5-7.2,4.1l3.9,3.75a48.58,48.58,0,0,1,5.9-4.65,17.135,17.135,0,0,1,9.95-3.55Q308.08,60.25,308.08,67.25Zm-14.5,3.85q4.35,0,5.1,3.4,0,.25.25,2.1a16.511,16.511,0,0,1-4.7.8q-6.35,0-6.35-3.35Q287.93,71.1,293.58,71.1Z" transform="translate(183 103)" fill="#fff"/>
    </g>
  </g>
</svg>
