<svg xmlns="http://www.w3.org/2000/svg" xmlns:xlink="http://www.w3.org/1999/xlink" width="76" height="76" viewBox="0 0 76 76">
  <defs>
    <linearGradient id="linear-gradient" x1="0.5" x2="0.5" y2="1" gradientUnits="objectBoundingBox">
      <stop offset="0" stop-color="#a1de64"/>
      <stop offset="1" stop-color="#3fc26f"/>
    </linearGradient>
    <clipPath id="clip-path">
      <rect id="Rectangle_63" data-name="Rectangle 63" width="76" height="76" transform="translate(489 1326)" fill="url(#linear-gradient)"/>
    </clipPath>
  </defs>
  <g id="icon_reason1" transform="translate(-413 -1326)">
    <g id="icon_reason1-2" data-name="icon_reason1" transform="translate(-76)" clip-path="url(#clip-path)">
      <g id="_1優しい" data-name="1優しい" transform="translate(489 1326)">
        <path id="Path_34" data-name="Path 34" d="M67.248,63.791a11.852,11.852,0,0,0-4.68-6.745,19.177,19.177,0,0,0-3.143-1.818c-1.624-.761-3.284-1.345-4.815-1.911a25.469,25.469,0,0,1-4.022-1.76,8.354,8.354,0,0,1-1.069-.735,4.644,4.644,0,0,1-1.083-1.262,4.04,4.04,0,0,1-.506-1.628,12.51,12.51,0,0,1-.07-1.313,15.774,15.774,0,0,1,.411-3.375,14.609,14.609,0,0,0,1.907-2.8A30.356,30.356,0,0,0,51.9,36.511,7.415,7.415,0,0,0,55.2,33.6a12.037,12.037,0,0,0,1.505-3.82,5.756,5.756,0,0,0-.413-3.748A6.638,6.638,0,0,0,55.38,24.6c.183-.675.406-1.586.6-2.651a28.449,28.449,0,0,0,.5-5.126,18.822,18.822,0,0,0-.339-3.678,13.363,13.363,0,0,0-.835-2.711,10.078,10.078,0,0,0-2.558-3.576,10.6,10.6,0,0,0-4.026-2.187A14.753,14.753,0,0,0,46.6,2.577,11.377,11.377,0,0,0,42.761.541,13.755,13.755,0,0,0,38.771,0c-.7,0-1.4.039-2.108.1-.659.06-1.206.128-1.7.211A11.586,11.586,0,0,0,33.047.8c-.587.2-1.15.438-1.89.728-.281.111-.647.274-1.092.5a19.237,19.237,0,0,0-2.843,1.767,18.23,18.23,0,0,0-4.755,5.172,16.016,16.016,0,0,0-1.7,3.88,17.236,17.236,0,0,0-.659,4.792,21.083,21.083,0,0,0,.3,3.44c0,.084,0,.167.009.246.009.148.026.306.042.468.026.239.053.487.074.7.012.1.021.195.028.269,0,.035,0,.065,0,.088v.169l.294,1.31a6.86,6.86,0,0,0-1.074,1.549,5.831,5.831,0,0,0-.631,2.628,5.766,5.766,0,0,0,.141,1.276,13.257,13.257,0,0,0,.909,2.725A8.515,8.515,0,0,0,22.23,35.3,7.389,7.389,0,0,0,24.1,36.513a30.267,30.267,0,0,0,1.721,3.931,14.472,14.472,0,0,0,1.9,2.8,15.912,15.912,0,0,1,.411,3.377,12.453,12.453,0,0,1-.067,1.313,4.258,4.258,0,0,1-.288,1.178,4.11,4.11,0,0,1-.937,1.378,7.608,7.608,0,0,1-1.584,1.157,18.74,18.74,0,0,1-2.194,1.03c-1.417.573-3.029,1.116-4.667,1.765a26.455,26.455,0,0,0-3.655,1.749,14.843,14.843,0,0,0-2.53,1.848,11.559,11.559,0,0,0-2.895,4.087,15.093,15.093,0,0,0-1.095,5.961,2.539,2.539,0,0,0,.183.93,3.34,3.34,0,0,0,.422.754,5.847,5.847,0,0,0,1.253,1.213,15.129,15.129,0,0,0,3.634,1.867,45.385,45.385,0,0,0,9.428,2.227A106.7,106.7,0,0,0,38,76a111.336,111.336,0,0,0,13.2-.712,60.643,60.643,0,0,0,7.16-1.253,34.04,34.04,0,0,0,3.948-1.2,18.785,18.785,0,0,0,2.229-.993,11.391,11.391,0,0,0,1.285-.793,5.9,5.9,0,0,0,1.364-1.308,3.473,3.473,0,0,0,.42-.768,2.565,2.565,0,0,0,.165-.886A16.581,16.581,0,0,0,67.248,63.791Zm-31.84,1.12-8.762-11.2a10.694,10.694,0,0,0,1.3-.881,7.614,7.614,0,0,0,1.19-1.178L35.5,54.606l-1.359,2.268,2.106,2.234ZM30.034,50.153a6.612,6.612,0,0,0,.5-1.967,14.878,14.878,0,0,0,.084-1.568,19.361,19.361,0,0,0-.536-4.23l-.077-.336-.237-.251a11.715,11.715,0,0,1-1.763-2.53,30.138,30.138,0,0,1-1.756-4.11l-.195-.55-.547-.2a5.092,5.092,0,0,1-1.1-.557A5.277,5.277,0,0,1,22.9,32.271a9.585,9.585,0,0,1-1.183-3.038,3.305,3.305,0,0,1,.29-2.25,4.343,4.343,0,0,1,.816-1.118,17.594,17.594,0,0,0,1.213,1.714c.557.559.383.387.568.111,0,0,.633-.891,3.982-7.406C35.287,21.774,47,11.71,47,11.71a12.36,12.36,0,0,0,2.375,6.227c2.118,2.825,3.326,9.456,3.326,9.456s.288-.545.717-1.278a4.164,4.164,0,0,1,.626.96,3.3,3.3,0,0,1,.244,2.155,10.833,10.833,0,0,1-.738,2.22,6.007,6.007,0,0,1-1.426,1.992,4.97,4.97,0,0,1-1.628.967l-.547.2-.195.55a29.949,29.949,0,0,1-1.756,4.112A11.623,11.623,0,0,1,46.227,41.8l-.237.251-.074.339a19.137,19.137,0,0,0-.538,4.226,15.519,15.519,0,0,0,.081,1.568,6.717,6.717,0,0,0,.436,1.8.731.731,0,0,0,.033.074l-7.54,3.966ZM41.2,65.317l-.9-6.209,2.108-2.234L41.042,54.6l5.764-3.029a6.467,6.467,0,0,0,.508.587,9.434,9.434,0,0,0,1.939,1.494Z" fill="url(#linear-gradient)"/>
      </g>
    </g>
    <g id="Group_25" data-name="Group 25">
      <g id="Group_24" data-name="Group 24">
        <circle id="Ellipse_3" data-name="Ellipse 3" cx="2" cy="2" r="2" transform="translate(444 1350)" fill="url(#linear-gradient)"/>
        <circle id="Ellipse_4" data-name="Ellipse 4" cx="2" cy="2" r="2" transform="translate(455 1350)" fill="url(#linear-gradient)"/>
      </g>
      <path id="Path_56" data-name="Path 56" d="M448,1359.908a4.383,4.383,0,0,0,3.973,2.317,4.536,4.536,0,0,0,3.96-2.317" transform="translate(-0.5)" fill="none" stroke="#65cd6a" stroke-linecap="round" stroke-width="2"/>
    </g>
  </g>
</svg>
