<svg xmlns="http://www.w3.org/2000/svg" xmlns:xlink="http://www.w3.org/1999/xlink" width="76" height="76" viewBox="0 0 76 76">
  <defs>
    <linearGradient id="linear-gradient" x1="0.5" x2="0.5" y2="1" gradientUnits="objectBoundingBox">
      <stop offset="0" stop-color="#a1de64"/>
      <stop offset="1" stop-color="#3fc26f"/>
    </linearGradient>
    <clipPath id="clip-path">
      <rect id="Rectangle_67" data-name="Rectangle 67" width="76" height="76" transform="translate(951 1326)" fill="url(#linear-gradient)"/>
    </clipPath>
  </defs>
  <g id="icon_reason2" transform="translate(-951 -1326)" clip-path="url(#clip-path)">
    <g id="_2スキルアップ" data-name="2スキルアップ" transform="translate(951 1326)">
      <path id="Path_35" data-name="Path 35" d="M70.144,50.551q-1.59-5.518-3.175-11.038-.518-1.8-1.034-3.593l-2.871,2.871q1.4,5.493,2.79,10.989c.459,1.8-.745,3.409-2.723,2.793A31.7,31.7,0,0,0,52.809,50.1a27.281,27.281,0,0,0-11.752,2.145c-.415.172-3.189,2.169-3.3.752q-.09-4.968-.183-9.936-.191-10.263-.38-20.524c-.007-.392.939-.589,1.134-.663a24.731,24.731,0,0,1,4.8-1.255,28.7,28.7,0,0,1,11.782.67,8.355,8.355,0,0,1,3.451,1.5l1.846-1.844a10.018,10.018,0,0,0-1.988-1.157,30.074,30.074,0,0,0-11.07-2.145A32.836,32.836,0,0,0,35.8,19.391c-.705.241-1.858-.4-2.579-.594-.849-.23-1.707-.422-2.572-.585a34.766,34.766,0,0,0-5.78-.575,36.811,36.811,0,0,0-11.028,1.716c-.779.292-.223.086-.049.021-2.208.835-4.629,2.2-5.325,4.62-.174.605-.35,1.211-.524,1.816L5.3,35Q3.49,41.283,1.684,47.561C.983,50-.406,53.13.114,55.693c.635,3.173,3.739,4.634,6.738,4.024A23,23,0,0,0,9.88,58.652a38.55,38.55,0,0,1,5.154-1.475,27.833,27.833,0,0,1,12.643.659c.925.239,4.393.837,4.493,1.872.1.965,1.2.7,1.9.7h2.08a6.726,6.726,0,0,0,2.3-.044c.605-.262.139-.925.71-1.174a23.634,23.634,0,0,1,2.389-.865,37.681,37.681,0,0,1,5.784-1.313,26.712,26.712,0,0,1,12.163,1.1c2.354.742,4.636,2.111,7.19,1.654,3.481-.617,4.905-4.175,3.992-7.348C70.517,51.792,70.322,51.172,70.144,50.551ZM33.621,30.669Q33.412,41.7,33.21,52.731c-.009.492-.144.8-.691.784a26.058,26.058,0,0,0-9.931-3.224,27.743,27.743,0,0,0-11.8,1.234c-1.194.369-2.53,1.181-3.8,1.181A2.023,2.023,0,0,1,5.04,50.068q1.329-5.222,2.653-10.446,1.559-6.14,3.117-12.283.39-1.527.777-3.059c.633-2.5,4.163-2.969,6.271-3.407a27.26,27.26,0,0,1,11.847.114c.677.16,4.082.684,4.063,1.656Q33.693,26.657,33.621,30.669Z" fill="url(#linear-gradient)"/>
      <path id="Path_36" data-name="Path 36" d="M45.215,46.286,55.539,44.1,76,23.64,67.864,15.5,47.407,35.96ZM72.076,23.64,54.532,41.181l-1.811-1.811L70.264,21.828Zm-4.212-4.212,1.811,1.811L52.132,38.78,50.32,36.969ZM49.91,37.734l3.857,3.859-3.593.791-1.058-1.055Z" fill="url(#linear-gradient)"/>
    </g>
  </g>
</svg>
