<svg xmlns="http://www.w3.org/2000/svg" xmlns:xlink="http://www.w3.org/1999/xlink" width="76" height="76" viewBox="0 0 76 76">
  <defs>
    <linearGradient id="linear-gradient" x1="0.5" x2="0.5" y2="1" gradientUnits="objectBoundingBox">
      <stop offset="0" stop-color="#a1de64"/>
      <stop offset="1" stop-color="#3fc26f"/>
    </linearGradient>
    <clipPath id="clip-path">
      <rect id="Rectangle_68" data-name="Rectangle 68" width="76" height="76" transform="translate(951 1710)" fill="url(#linear-gradient)"/>
    </clipPath>
  </defs>
  <g id="icon_reason4" transform="translate(-951 -1710)" clip-path="url(#clip-path)">
    <g id="_3福利厚生" data-name="3福利厚生" transform="translate(951 1710)">
      <path id="Path_39" data-name="Path 39" d="M55.456,4.414c-.139,0-.275,0-.415,0C46.561,4.581,41.077,8.762,38,13.832c-3.077-5.07-8.561-9.25-17.041-9.413-.138,0-.277,0-.415,0A19.278,19.278,0,0,0,5.92,10.877C2.048,15.234,0,21.344,0,28.546,0,42.688,11.341,51.313,22.308,59.653A139.348,139.348,0,0,1,34.7,69.849l.169.23a4.023,4.023,0,0,0,3.013,1.5l.119,0,.124,0a4.027,4.027,0,0,0,3.005-1.5l.172-.234A139.081,139.081,0,0,1,53.692,59.653C64.659,51.313,76,42.688,76,28.546,76,14.337,67.551,4.414,55.456,4.414ZM55.128,53.1c-5.51,4.3-11.6,8.589-16.871,13.671-.1.1-.185.184-.259.264-.077-.081-.151-.161-.256-.264C30.721,60,22.228,54.618,15.608,48.783a40.584,40.584,0,0,1-8.133-9.216A20.814,20.814,0,0,1,4.326,28.546c0-6.565,1.9-11.5,4.828-14.8a14.918,14.918,0,0,1,11.39-5.012l.332,0a15.629,15.629,0,0,1,11.135,4.406A16.8,16.8,0,0,1,36.579,22.2a1.441,1.441,0,0,0,2.842,0,16.8,16.8,0,0,1,4.567-9.053A15.628,15.628,0,0,1,55.124,8.743l.332,0a14.918,14.918,0,0,1,11.39,5.012c2.927,3.293,4.825,8.231,4.828,14.8a20.813,20.813,0,0,1-3.149,11.021C65.551,44.506,60.643,48.808,55.128,53.1Z" fill="url(#linear-gradient)"/>
    </g>
  </g>
</svg>
