<svg xmlns="http://www.w3.org/2000/svg" xmlns:xlink="http://www.w3.org/1999/xlink" width="76" height="76" viewBox="0 0 76 76">
  <defs>
    <linearGradient id="linear-gradient" x1="0.5" x2="0.5" y2="1" gradientUnits="objectBoundingBox">
      <stop offset="0" stop-color="#a1de64"/>
      <stop offset="1" stop-color="#3fc26f"/>
    </linearGradient>
    <clipPath id="clip-path">
      <rect id="Rectangle_65" data-name="Rectangle 65" width="76" height="76" transform="translate(489 2093)" fill="url(#linear-gradient)"/>
    </clipPath>
  </defs>
  <g id="icon_reason5" transform="translate(-489 -2093)" clip-path="url(#clip-path)">
    <g id="_5お金" data-name="5お金" transform="translate(489 2093)">
      <path id="Path_40" data-name="Path 40" d="M48.431,12.768l8.56,2.272a.6.6,0,0,1,.456.453l2.257,8.56a.555.555,0,0,0,.539.428.548.548,0,0,0,.537-.428l2.26-8.56a.594.594,0,0,1,.454-.453l8.561-2.272a.54.54,0,0,0,0-1.056l-8.561-2.27a.6.6,0,0,1-.454-.453L60.779.429A.551.551,0,0,0,60.242,0,.558.558,0,0,0,59.7.429l-2.257,8.56a.6.6,0,0,1-.456.453l-8.56,2.271a.54.54,0,0,0,0,1.056Z" fill="url(#linear-gradient)"/>
      <path id="Path_41" data-name="Path 41" d="M62.493,47.119l-3.885-1.03a.274.274,0,0,1-.207-.206L57.376,42a.25.25,0,0,0-.244-.194.253.253,0,0,0-.244.194l-1.024,3.885a.275.275,0,0,1-.207.206l-3.884,1.03a.245.245,0,0,0,0,.481l3.884,1.029a.275.275,0,0,1,.207.208l1.024,3.883a.253.253,0,0,0,.244.194.25.25,0,0,0,.244-.194L58.4,48.837a.273.273,0,0,1,.207-.208L62.493,47.6a.246.246,0,0,0,0-.481Z" fill="url(#linear-gradient)"/>
      <path id="Path_42" data-name="Path 42" d="M5.617,20.792l6.116,1.62a.435.435,0,0,1,.327.325l1.611,6.116a.4.4,0,0,0,.771,0l1.612-6.116a.428.428,0,0,1,.326-.325l6.117-1.62a.389.389,0,0,0,.306-.381.384.384,0,0,0-.306-.376l-6.117-1.623a.426.426,0,0,1-.326-.323l-1.612-6.12a.4.4,0,0,0-.771,0l-1.611,6.12a.433.433,0,0,1-.327.323L5.617,20.035a.382.382,0,0,0-.308.376A.387.387,0,0,0,5.617,20.792Z" fill="url(#linear-gradient)"/>
      <path id="Path_43" data-name="Path 43" d="M48.021,46.959l-6.288-.084-.168-2.361,6.21.1L47.408,41.6l-4.423-.1,4.237-7.319-4.89-.173L38.6,40.029l-3.73-6.022-4.891.173L34.216,41.5l-4.423.1-.366,3.018,6.211-.1-.171,2.361-6.288.084-.392,3.222,6.412-.048-.359,4.36h7.52L42,50.133l6.412.048Z" fill="url(#linear-gradient)"/>
      <path id="Path_44" data-name="Path 44" d="M72.127,40.37a14.171,14.171,0,0,0-2.03-3.4,19.157,19.157,0,0,0-2.894-2.89l-.066-.054.064.054a35.141,35.141,0,0,0-12.519-6.1h0A61.476,61.476,0,0,0,38,25.783a63.8,63.8,0,0,0-13.014,1.3A45.811,45.811,0,0,0,14.12,30.719h0A24.546,24.546,0,0,0,6.27,36.53l.036-.045-.037.045a14.449,14.449,0,0,0-2.4,3.84,11.572,11.572,0,0,0-.9,4.443V56.966a11.576,11.576,0,0,0,.9,4.445,14.168,14.168,0,0,0,2.03,3.4A19.159,19.159,0,0,0,8.8,67.7h0a35.137,35.137,0,0,0,12.518,6.1l.011,0,.324.091-.308-.088A61.533,61.533,0,0,0,38,76h0a63.881,63.881,0,0,0,13.012-1.3A45.854,45.854,0,0,0,61.88,71.062l0,0a24.593,24.593,0,0,0,7.848-5.809v0a14.377,14.377,0,0,0,2.395-3.837l-.036.085.037-.085a11.621,11.621,0,0,0,.9-4.445V44.813A11.616,11.616,0,0,0,72.127,40.37ZM10.812,63.3a14.04,14.04,0,0,1-1.018-1.057,9.849,9.849,0,0,1-1.635-2.6,6.916,6.916,0,0,1-.546-2.673V51.457a17.2,17.2,0,0,0,2.5,2.477q.342.275.7.545Zm6.716,4.234c-.462-.2-.917-.407-1.353-.624a26.707,26.707,0,0,1-2.805-1.6V56.15a33.809,33.809,0,0,0,4.158,2v9.375Zm8.317,2.608a45.7,45.7,0,0,1-5.907-1.654h.151V59.088q.879.291,1.8.553c1.268.36,2.591.676,3.957.951Zm10.875,1.21A59.734,59.734,0,0,1,28.4,70.6V61.04a62.542,62.542,0,0,0,8.315.705Zm11.2-.806a59.557,59.557,0,0,1-8.636.8V61.75A63.082,63.082,0,0,0,47.916,61Zm8.317-2.117q-1.354.491-2.821.91c-.945.269-1.929.509-2.937.728V60.529a49.139,49.139,0,0,0,5.758-1.549Zm6.717-3.337a27.048,27.048,0,0,1-4.159,2.3v-9.37c.748-.31,1.474-.635,2.168-.977s1.356-.706,1.991-1.08Zm5.437-8.121a6.9,6.9,0,0,1-.547,2.673,10.505,10.505,0,0,1-2.332,3.351V54.345h-.152a18.168,18.168,0,0,0,2.794-2.6c.081-.095.158-.191.236-.286v5.507Zm-.547-9.482a11.728,11.728,0,0,1-3.566,4.465,30.654,30.654,0,0,1-10.862,5.23A56.861,56.861,0,0,1,38,59.208c-8.572,0-16.325-1.73-21.825-4.458a20.033,20.033,0,0,1-6.382-4.667,9.827,9.827,0,0,1-1.635-2.6,6.8,6.8,0,0,1,0-5.341,11.715,11.715,0,0,1,3.567-4.464,30.644,30.644,0,0,1,10.862-5.232A56.923,56.923,0,0,1,38,30.42c8.572,0,16.324,1.73,21.824,4.457a20.012,20.012,0,0,1,6.382,4.666,9.749,9.749,0,0,1,1.635,2.6,6.791,6.791,0,0,1,0,5.341Z" fill="url(#linear-gradient)"/>
    </g>
  </g>
</svg>
