<svg xmlns="http://www.w3.org/2000/svg" xmlns:xlink="http://www.w3.org/1999/xlink" width="76" height="76" viewBox="0 0 76 76">
  <defs>
    <linearGradient id="linear-gradient" x1="0.5" x2="0.5" y2="1" gradientUnits="objectBoundingBox">
      <stop offset="0" stop-color="#a1de64"/>
      <stop offset="1" stop-color="#3fc26f"/>
    </linearGradient>
    <clipPath id="clip-path">
      <rect id="Rectangle_69" data-name="Rectangle 69" width="76" height="76" transform="translate(572 1710)" fill="url(#linear-gradient)"/>
    </clipPath>
  </defs>
  <g id="icon_reason3" transform="translate(-572 -1710)" clip-path="url(#clip-path)">
    <g id="_3資格" data-name="3資格" transform="translate(572 1710)">
      <path id="Path_53" data-name="Path 53" d="M52.3,25.546a1.665,1.665,0,0,0,0-3.255,41.362,41.362,0,0,1-8.031-2.567A21.207,21.207,0,0,1,37.95,15.66a21.209,21.209,0,0,1-4.064-6.313,41.314,41.314,0,0,1-2.567-8.03,1.665,1.665,0,0,0-3.256,0A41.457,41.457,0,0,1,25.5,9.347a21.179,21.179,0,0,1-4.065,6.315,21.192,21.192,0,0,1-6.312,4.064A41.446,41.446,0,0,1,7.087,22.3a1.664,1.664,0,0,0,0,3.254,41.243,41.243,0,0,1,8.031,2.568,21.2,21.2,0,0,1,6.313,4.063A21.19,21.19,0,0,1,25.5,38.494a41.269,41.269,0,0,1,2.568,8.03,1.665,1.665,0,0,0,3.256,0,41.3,41.3,0,0,1,2.568-8.032,21.165,21.165,0,0,1,4.062-6.313,21.19,21.19,0,0,1,6.313-4.063A41.433,41.433,0,0,1,52.3,25.546Zm-16.7,4.28a24.387,24.387,0,0,0-4.752,7.313c-.427.96-.8,1.951-1.154,2.95-.353-1-.729-1.99-1.155-2.948a24.376,24.376,0,0,0-4.751-7.313,24.4,24.4,0,0,0-7.313-4.753c-.96-.426-1.952-.8-2.951-1.154,1-.352,1.99-.727,2.95-1.155a24.42,24.42,0,0,0,7.312-4.751A24.366,24.366,0,0,0,28.535,10.7c.428-.96.8-1.952,1.156-2.95.352,1,.727,1.989,1.154,2.949a24.4,24.4,0,0,0,4.75,7.312,24.4,24.4,0,0,0,7.314,4.753c.96.426,1.951.8,2.95,1.155-1,.352-1.99.728-2.95,1.154A24.408,24.408,0,0,0,35.6,29.826Z" fill="url(#linear-gradient)"/>
      <path id="Path_54" data-name="Path 54" d="M68.912,47.463a24.064,24.064,0,0,1-4.666-1.489,12.041,12.041,0,0,1-3.571-2.29,12.005,12.005,0,0,1-2.288-3.57A24.029,24.029,0,0,1,56.9,35.449a1.665,1.665,0,0,0-3.255,0,24.059,24.059,0,0,1-1.491,4.667,11.979,11.979,0,0,1-2.289,3.571,12.009,12.009,0,0,1-3.57,2.289,24.156,24.156,0,0,1-4.666,1.492,1.663,1.663,0,0,0,0,3.253,24,24,0,0,1,4.666,1.493A11.961,11.961,0,0,1,49.86,54.5a11.992,11.992,0,0,1,2.29,3.572,23.914,23.914,0,0,1,1.493,4.664,1.664,1.664,0,0,0,3.254,0,24.012,24.012,0,0,1,1.491-4.666,9.917,9.917,0,0,1,5.86-5.86,24.168,24.168,0,0,1,4.664-1.494,1.664,1.664,0,0,0,0-3.254ZM62.893,49.17a13.2,13.2,0,0,0-7.546,7.548c-.026.062-.05.129-.078.193-.027-.064-.052-.131-.079-.193a15.217,15.217,0,0,0-2.976-4.57,15.206,15.206,0,0,0-4.57-2.975c-.063-.028-.127-.052-.192-.079.064-.028.128-.05.192-.078a15.228,15.228,0,0,0,4.569-2.974,15.215,15.215,0,0,0,2.978-4.573c.028-.063.05-.127.078-.192.028.064.05.129.078.192a15.243,15.243,0,0,0,2.975,4.569,15.237,15.237,0,0,0,4.572,2.977c.062.027.127.052.19.079C63.021,49.12,62.955,49.142,62.893,49.17Z" fill="url(#linear-gradient)"/>
      <path id="Path_55" data-name="Path 55" d="M33.947,61.544a20.057,20.057,0,0,1-3.864-1.234,9.84,9.84,0,0,1-2.918-1.868A9.79,9.79,0,0,1,25.3,55.527a19.813,19.813,0,0,1-1.236-3.865,1.664,1.664,0,0,0-3.254,0,20.088,20.088,0,0,1-1.235,3.866,9.82,9.82,0,0,1-1.867,2.917,9.826,9.826,0,0,1-2.917,1.867,20.018,20.018,0,0,1-3.865,1.235,1.664,1.664,0,0,0,0,3.254,19.977,19.977,0,0,1,3.866,1.235A9.807,9.807,0,0,1,17.708,67.9a9.834,9.834,0,0,1,1.868,2.918,19.934,19.934,0,0,1,1.236,3.865,1.665,1.665,0,0,0,3.255,0A19.882,19.882,0,0,1,25.3,70.819,9.812,9.812,0,0,1,27.167,67.9a9.8,9.8,0,0,1,2.918-1.866A19.981,19.981,0,0,1,33.948,64.8a1.663,1.663,0,0,0,0-3.253Zm-9.134,4a12.6,12.6,0,0,0-2.375,3.55,12.57,12.57,0,0,0-2.376-3.55,12.62,12.62,0,0,0-3.549-2.375A12.671,12.671,0,0,0,20.061,60.8a12.6,12.6,0,0,0,2.375-3.55A12.631,12.631,0,0,0,24.813,60.8a12.539,12.539,0,0,0,3.551,2.376A12.6,12.6,0,0,0,24.813,65.549Z" fill="url(#linear-gradient)"/>
    </g>
  </g>
</svg>
