<svg xmlns="http://www.w3.org/2000/svg" xmlns:xlink="http://www.w3.org/1999/xlink" width="76" height="76" viewBox="0 0 76 76">
  <defs>
    <linearGradient id="linear-gradient" x1="0.5" x2="0.5" y2="1" gradientUnits="objectBoundingBox">
      <stop offset="0" stop-color="#a1de64"/>
      <stop offset="1" stop-color="#3fc26f"/>
    </linearGradient>
    <clipPath id="clip-path">
      <rect id="Rectangle_66" data-name="Rectangle 66" width="76" height="76" transform="translate(951 2093)" fill="url(#linear-gradient)"/>
    </clipPath>
  </defs>
  <g id="icon_reason6" transform="translate(-951 -2093)" clip-path="url(#clip-path)">
    <g id="_4自分に合った" data-name="4自分に合った" transform="translate(951 2093)">
      <path id="Path_45" data-name="Path 45" d="M33.89,11.5A5.764,5.764,0,1,0,27.618,6.3,5.765,5.765,0,0,0,33.89,11.5Z" fill="url(#linear-gradient)"/>
      <path id="Path_46" data-name="Path 46" d="M54.7,57.624a2.6,2.6,0,0,0,3.613-.2l.068-.072a2.6,2.6,0,0,0-.074-3.613l-6.686-7.426-2.446-8.3c-.112.2-.228.4-.357.582a7.449,7.449,0,0,1-5.44,3.17l-1.013.07,2.581,6.234a12.165,12.165,0,0,0,2.247,2.733Z" fill="url(#linear-gradient)"/>
      <path id="Path_47" data-name="Path 47" d="M31.828,52.186A2.643,2.643,0,0,0,33.8,49.137l-1.652-8.871,10.9-.757a5.178,5.178,0,0,0,4.606-6.631l-.409-1.389L43.835,19.071l5.845.316,4.672,4.5A1.149,1.149,0,0,0,54.1,24.9l.381,1.544-2.716.669a1.2,1.2,0,0,0-.877,1.452l1.829,7.423a1.2,1.2,0,0,0,1.451.878L65.7,34.02a1.2,1.2,0,0,0,.876-1.453l-1.831-7.42a1.2,1.2,0,0,0-1.449-.878l-2.717.669L60.2,23.393a1.17,1.17,0,0,0-1.417-.855l-.285.07a2.005,2.005,0,0,0-.356-.746l-4.569-5.991a3.5,3.5,0,0,0-1.987-1.286L44.07,11.9a8.4,8.4,0,0,0-7.956,1.247l-10.427,8L18.924,18.7a2.146,2.146,0,0,0-2.8,1.021l-.07.142a2.151,2.151,0,0,0,1.006,2.884l8.152,3.891a3.687,3.687,0,0,0,3.206-.012l4.344-2.889,2.982,8.548-7.213.631a4.081,4.081,0,0,0-3.554,5.206l3.585,12.262a2.644,2.644,0,0,0,3.168,1.824ZM59.051,23.633l.052.03.382,1.544-3.907.963-.369-1.5a2.012,2.012,0,0,0,2.513.058l.044-.035a2,2,0,0,0,.662-.911Z" fill="url(#linear-gradient)"/>
      <path id="Path_48" data-name="Path 48" d="M35.516,57.578l-4.011-2.421V76h12.99V54.042l-1.527-.81Z" fill="url(#linear-gradient)"/>
      <path id="Path_49" data-name="Path 49" d="M46.979,76H59.967V62.251L46.979,55.36Z" fill="url(#linear-gradient)"/>
      <path id="Path_50" data-name="Path 50" d="M62.451,63.57V76H73.4V69.377Z" fill="url(#linear-gradient)"/>
      <path id="Path_51" data-name="Path 51" d="M16.033,76H29.021V53.657L16.033,45.815Z" fill="url(#linear-gradient)"/>
      <path id="Path_52" data-name="Path 52" d="M2.6,76H13.549V44.315L2.6,37.707Z" fill="url(#linear-gradient)"/>
    </g>
  </g>
</svg>
