<svg xmlns="http://www.w3.org/2000/svg" xmlns:xlink="http://www.w3.org/1999/xlink" width="1035" height="100" viewBox="0 0 1035 100">
  <defs>
    <linearGradient id="linear-gradient" x1="1.058" y1="0.532" x2="0.013" y2="0.526" gradientUnits="objectBoundingBox">
      <stop offset="0" stop-color="#a1de64"/>
      <stop offset="1" stop-color="#3fc26f"/>
    </linearGradient>
    <filter id="Path_60" x="102" y="19.76" width="274.3" height="66.78" filterUnits="userSpaceOnUse">
      <feOffset dy="3" input="SourceAlpha"/>
      <feGaussianBlur stdDeviation="3" result="blur"/>
      <feFlood flood-opacity="0.161"/>
      <feComposite operator="in" in2="blur"/>
      <feComposite in="SourceGraphic"/>
    </filter>
    <filter id="Path_59" x="409.448" y="23.68" width="218.112" height="61.44" filterUnits="userSpaceOnUse">
      <feOffset dy="3" input="SourceAlpha"/>
      <feGaussianBlur stdDeviation="3" result="blur-2"/>
      <feFlood flood-opacity="0.161"/>
      <feComposite operator="in" in2="blur-2"/>
      <feComposite in="SourceGraphic"/>
    </filter>
  </defs>
  <g id="shacho_name" transform="translate(-331 -1181)">
    <path id="Path_34" data-name="Path 34" d="M0,0H1035L983.192,100H0Z" transform="translate(1366 1281) rotate(180)" opacity="0.82" fill="url(#linear-gradient)"/>
    <g transform="matrix(1, 0, 0, 1, 331, 1181)" filter="url(#Path_60)">
      <path id="Path_60-2" data-name="Path 60" d="M-255.62-2.6a16.526,16.526,0,0,0,2-5.44V.54a2.484,2.484,0,0,1-.1.74H-252a2.569,2.569,0,0,1-.1-.92V-8.76l1.7,3.2.64-2.38q-.38-.52-.78-1.06l-1.44-2.22-.12-.5h1.16a5.814,5.814,0,0,1,1.06.1v-1.7a6.986,6.986,0,0,1-1.1.08h-1.12V-15.6a2.1,2.1,0,0,1,.1-.92h-1.72a2.569,2.569,0,0,1,.1.92v2.36h-1.82a5.55,5.55,0,0,1-1.02-.08v1.7a6.022,6.022,0,0,1,1.2-.1h1.64v.42A13.111,13.111,0,0,1-257-4.36,7.261,7.261,0,0,1-255.62-2.6Zm10.82,3.9h1.72a3.538,3.538,0,0,1-.1-.86v-5.9a25.443,25.443,0,0,0,3.38,4.34,2.715,2.715,0,0,1,.6.66l.96-1.86a14.811,14.811,0,0,1-4.48-4.7h3.76a2.328,2.328,0,0,1,.76.1v-1.7a11.134,11.134,0,0,1-1.66.08h-3.32v-2.72h3.42a2.176,2.176,0,0,1,.72.1v-1.72a6.625,6.625,0,0,1-1.4.1h-2.74V-15.6a3.878,3.878,0,0,1,.1-.9h-1.72a3.718,3.718,0,0,1,.1.9v2.82h-2.02q.26-.86.28-.92l.44-1.78-1.52-.54q-.44,3.98-2.54,5.58l1.32,1.6.56-.86a10.415,10.415,0,0,0,.9-1.56h2.58v2.72h-3.92a5.856,5.856,0,0,1-.92-.08v1.7a5.965,5.965,0,0,1,1.54-.1h2.82a12.994,12.994,0,0,1-5.22,5.1l1.02,1.82a4.14,4.14,0,0,0,.88-.7,23.494,23.494,0,0,0,3.8-4.58V.42A1.943,1.943,0,0,1-244.8,1.3Zm21.08-3.16.02-1.74a3.554,3.554,0,0,1-.98.38l-3.66,1.02V-6.94h2.92a4.234,4.234,0,0,1,.94.1v-1.7a4.066,4.066,0,0,1-.94.1h-7.34a3.034,3.034,0,0,1-.9-.1h-.04v1.7h.04a3.878,3.878,0,0,1,.9-.1h2.92v5.08a34.365,34.365,0,0,1-3.62.62L-235-1.2l.98,1.82h.02a2.278,2.278,0,0,1,.76-.2q4.92-.98,8.56-2.08Zm5.44-11.56a10.453,10.453,0,0,0-3.04-2.72l-1.36,1a4.17,4.17,0,0,1,1.14.74,16.936,16.936,0,0,1,1.48,1.32,2.889,2.889,0,0,1,.5.74Zm-4.54-2.1a6.773,6.773,0,0,1,.1-.94h-1.72a5.288,5.288,0,0,1,.12,1.34q.04,1.24.2,2.82h-9.58a2.586,2.586,0,0,1-.9-.1v1.72a4.164,4.164,0,0,1,.96-.1h9.7q1.18,7.96,3.22,10.94.92,1.3,1.74,1.3,1.14,0,1.52-2.14.16-.9.24-1.48a1.726,1.726,0,0,1,.16-.66l-1.58-1.46v.42a11.678,11.678,0,0,1-.2,2.34q-.2.98-.32,1.04-.12.08-.32-.24a16.5,16.5,0,0,1-1.84-4.62,47.793,47.793,0,0,1-1.08-5.44h3.84a2.3,2.3,0,0,1,.78.1v-1.7a4.658,4.658,0,0,1-.94.08h-3.86Q-222.76-13.88-222.82-15.52ZM-198.6,1.66l1.8-.7-1.06-1.62a30.933,30.933,0,0,0-2.08-2.62l-1.32-1.4-1.48.82.78.7q.36.32,1.18,1.22a41.665,41.665,0,0,1-6.32.72,15.088,15.088,0,0,0,2.06-3.84h7.7a3.718,3.718,0,0,1,.9.1V-6.72a3.718,3.718,0,0,1-.9.1h-14.14a3.332,3.332,0,0,1-.88-.1v1.76a3.627,3.627,0,0,1,.88-.1h4.72a14.467,14.467,0,0,1-2.48,3.92,5.89,5.89,0,0,1-1.32.06,16.623,16.623,0,0,1-1.9-.08l.64,1.96a2.33,2.33,0,0,1,.88-.12q.72,0,2.86-.12,3.94-.36,8.4-1.16A4.963,4.963,0,0,1-198.6,1.66Zm-2.04-10.6a2.613,2.613,0,0,1,.74.1v-1.78a2.569,2.569,0,0,1-.92.1h-7.16a2.569,2.569,0,0,1-.92-.1v1.78h.04a3.627,3.627,0,0,1,.88-.1Zm5.64-1.32a22.276,22.276,0,0,1-8.42-6.14h-1.94a22.5,22.5,0,0,1-8.44,6.3l1.02,1.62a29.1,29.1,0,0,0,8.28-6.42h.2a32.349,32.349,0,0,0,8.32,6.4Zm20.26,1.56a2.484,2.484,0,0,1,.74.1v-1.7a7.739,7.739,0,0,1-1.34.08h-2.7v-5.32a4.6,4.6,0,0,1,.1-.94h-1.7a3.878,3.878,0,0,1,.1.9v5.36h-3.12a2.1,2.1,0,0,1-.92-.1V-8.6a6.22,6.22,0,0,1,1.34-.1h2.7v7.62h-4.06l-.88-.08V.54a3.538,3.538,0,0,1,.86-.1h9.26a2.04,2.04,0,0,1,.86.1v-1.7a3.594,3.594,0,0,1-.78.08h-3.76V-8.7Zm-8.78,3.2a3.932,3.932,0,0,1-.78-.52l-2.24-1.84a18.2,18.2,0,0,0,2.14-2.98,10.914,10.914,0,0,0,.68-1.3l-1.04-1.2h-2.12V-15.4a4.965,4.965,0,0,1,.08-1.12h-1.7a2.337,2.337,0,0,1,.1.7v2.48h-1.84a3.811,3.811,0,0,1-.92-.1v1.7a6.588,6.588,0,0,1,1.16-.1h4.46a17.9,17.9,0,0,1-6.66,6.88l1.08,1.66,2.72-2.54V.36a3.971,3.971,0,0,1-.1.92h1.7l-.08-.98V-6.14l2.48,2.6Zm22.36-10.6a.681.681,0,0,1,.02-.22l-1.92.12a7.151,7.151,0,0,1,.2.94l.3,2.96-5.52.48q-.28.02-.98.02l.18,1.74a4.752,4.752,0,0,1,.96-.2l5.52-.5.36,3.54-6.58.72q-.64.06-.8.06h-.18l.28,1.68a3.782,3.782,0,0,1,.9-.18l6.54-.74.58,5.54q.04.72.04,1.12l1.9-.16a3.747,3.747,0,0,1-.2-.96l-.58-5.74,6.36-.72.88-.04-.2-1.7a3.539,3.539,0,0,1-.86.22l-6.34.7-.36-3.48,5.32-.48q.3-.02.54-.02t.44.02l-.18-1.74a4.666,4.666,0,0,1-.94.2l-5.32.46Q-161.16-15.9-161.16-16.1ZM-136.8-4.02l3.98-5.3-1.1-1.06-7.48,1.32-.84-3.18-1.48.42.82,3.06-4.08.7.44,1.54,4-.78,2.2,8.44,1.46-.44-2.16-8.3,5.72-1.06-3.12,4.18Zm13.5-3.08-.06.88,1.76.24a4.048,4.048,0,0,1-.1-.9V-14.4a2.562,2.562,0,0,1,.1-.76l-1.76-.5a6.966,6.966,0,0,1,.06.94Zm1.8,6.04,1.38,1.62q7.4-2.72,7.4-8.38v-6.9a1.9,1.9,0,0,1,.08-.52l-1.76-.52a3.8,3.8,0,0,1,.12,1.06v6Q-114.28-2.48-121.5-1.06Zm18.34-13.68q-.82-.1-1.1-.14l.54,1.74q.98-.08,1.28-.08l11.9-.02a13.366,13.366,0,0,1-4.54,4.86L-93.96-7a18.582,18.582,0,0,0,5.28-6.5q.14-.16.28-.3l-1.66-1.32-.34.38Zm7.48,3.88-1.84-.32a8.108,8.108,0,0,1,.08.98v.46q-.54,7.26-5.1,8.78l1.3,1.38q5-2.26,5.32-10.16A5.2,5.2,0,0,1-95.68-10.86Zm20.88,2.5q-.74,6.42-5.58,7.44L-78.9.6q5.12-2.02,5.82-8.96h6.06a2.248,2.248,0,0,1,.58.08v-1.76a2.925,2.925,0,0,1-1,.1H-82.46a3.572,3.572,0,0,1-.66-.1v1.78a5.968,5.968,0,0,1,1.16-.1Zm2.78-6.36h-8.02a.746.746,0,0,1-.48-.1v1.68a2.243,2.243,0,0,1,.98-.1h7.52a4.43,4.43,0,0,1,.98.1v-1.68A2.834,2.834,0,0,1-72.02-14.72ZM-71-15.84a7.5,7.5,0,0,1,1.66,3.68l1.34-.48a7.545,7.545,0,0,0-1.8-3.48Zm3.7-.72-1.26.3a6.539,6.539,0,0,1,1.66,3.68l1.32-.48A8.326,8.326,0,0,0-67.3-16.56Zm17.88.08a7.66,7.66,0,0,1,1.68,3.7l1.34-.5a7.562,7.562,0,0,0-1.86-3.54Zm3.66-.76-1.22.34a6.471,6.471,0,0,1,1.68,3.68l1.32-.48A8.463,8.463,0,0,0-45.76-17.24Zm-17.18,5.1.3,1.78a5.21,5.21,0,0,1,1.18-.1h3.14v4.52a4.635,4.635,0,0,1-.1.9h1.7a6.83,6.83,0,0,1-.08-1.04v-4.44h5.22v2.34q0,5.74-6.56,7.1L-56.88.36q6.86-1.86,6.86-7.66v-3.24h3.8l.88.04-.2-1.74a1.745,1.745,0,0,1-.92.2l-3.56.02v-3.44a4.005,4.005,0,0,1,.1-.96l-1.76-.28a4.508,4.508,0,0,1,.1.96v3.72H-56.8v-3.4a5.42,5.42,0,0,1,.08-1l-1.7-.28a5.1,5.1,0,0,1,.1,1.04v3.64h-3.7A1.851,1.851,0,0,1-62.94-12.14Zm30.76,3.06.12.58V-.36a3.854,3.854,0,0,1-.1.96h1.78a4.331,4.331,0,0,1-.1-.96V-8.62l-.34-.8.04-.46a38.842,38.842,0,0,0,5.34-4.1q.66-.66,1.02-1h.02l-1.68-1.16a2.294,2.294,0,0,1-.84,1.38A29.2,29.2,0,0,1-39.88-7.78l.78,1.64,2-.66A38.857,38.857,0,0,0-32.18-9.08Zm20.26-2.22a20.605,20.605,0,0,0-4.2-3.62L-17.4-13.6a16.053,16.053,0,0,1,4.12,3.68ZM-17.2-1.12-16.14.62Q-6.88-1.44-2.54-11.4l.4-.78-1.9-.56a2.9,2.9,0,0,1-.24.86A20.712,20.712,0,0,1-8.86-5Q-13.08-1.4-17.2-1.12ZM-132.26,31.36a1.568,1.568,0,0,0,.82-.32q.48-.32,1.04-3.54l-1.66-1.38v.74a8.98,8.98,0,0,1-.26,2.72l-.1-.06q-2.74-1.16-4.16-8.78l5.46-.52.6.02.02-1.72a6.66,6.66,0,0,1-1.1.22l-5.18.58a43.765,43.765,0,0,1-.38-5.08,2.283,2.283,0,0,1-.02-.32,2.253,2.253,0,0,1,.04-.4l-1.66.02a10.639,10.639,0,0,1,.12,1.62q.04,1.52.38,4.3l-3.98.38q-.2.02-.44.02-.22,0-.48-.02v1.7q.8-.16,1.08-.2l4.06-.46q.98,7.16,3.8,9.5A3.434,3.434,0,0,0-132.26,31.36Zm.72-14.58a9.156,9.156,0,0,0-3.08-2.86l-1.26.94a9.649,9.649,0,0,1,3.02,2.86ZM-144.58,13a27.757,27.757,0,0,1-4.22,9.2l1.04,1.5a27.086,27.086,0,0,0,1.74-3.02v9.66a5.257,5.257,0,0,1-.1.94h1.72a2.656,2.656,0,0,1-.1-.94v-13q.74-1.74,1.52-3.82Zm29.84,12.62a11.085,11.085,0,0,1-1.68-3.02h6.54a2.644,2.644,0,0,1,.68.08V21.26a3.7,3.7,0,0,1-.8.08h-7.24V19.62h5.86a2.484,2.484,0,0,1,.74.1V18.28a3.629,3.629,0,0,1-.82.08h-5.78v-1.7h6.42a3.7,3.7,0,0,1,.8.08V15.32a3.876,3.876,0,0,1-.8.08h-6.42V14.36a2.744,2.744,0,0,1,.1-.96h-1.72a2.744,2.744,0,0,1,.1.96V15.4h-6.4a3.63,3.63,0,0,1-.82-.08v1.42a3.979,3.979,0,0,1,.82-.08h6.4v1.7h-5.86a2.176,2.176,0,0,1-.74-.08v1.44a1.455,1.455,0,0,1,.74-.1h5.86v1.72h-7.22a2.907,2.907,0,0,1-.82-.08v1.42a3.7,3.7,0,0,1,.8-.08h6.22a12.35,12.35,0,0,1-6.64,3.34,7.505,7.505,0,0,1-1.08.1l1.04,1.78q.42-.16,1.34-.44a21.2,21.2,0,0,0,2.88-1.26v3.34a27.893,27.893,0,0,1-3.52.2l.7,1.78a7.044,7.044,0,0,1,1.56-.26q1.34-.16,2.96-.48t2.94-.68a9.743,9.743,0,0,1,1.6-.36q-.04-.82-.1-1.66a18.984,18.984,0,0,1-4.64,1.2V25.16a11.794,11.794,0,0,0,2.16-1.8q.56-.64.68-.76a13.316,13.316,0,0,0,2.28,4.3,14.35,14.35,0,0,0,4.38,3.58q1.62.78,1.7.86l1.04-1.92a3.692,3.692,0,0,1-1.16-.16,10.159,10.159,0,0,1-4.24-2.64,23.55,23.55,0,0,0,3.02-2.34l.74-.6-1.44-1A13.611,13.611,0,0,1-114.74,25.62Zm16.2,1.56v3.34a4.2,4.2,0,0,1-.1.76h1.72a2.655,2.655,0,0,1-.1-.94V15.88h.4l.7.08v-1.7a3.538,3.538,0,0,1-.86.1h-7.6a3.475,3.475,0,0,1-.94-.1v1.7a4.847,4.847,0,0,1,.94-.08h.76V27a9.9,9.9,0,0,1-1.4.12l-.98-.02.86,1.82a2.841,2.841,0,0,1,.9-.22A35.25,35.25,0,0,0-98.54,27.18Zm11.14,2.4a14.928,14.928,0,0,1-3.36-3.78,24.345,24.345,0,0,0,3.22-8.86l-.68-1.36h-6.44a4.961,4.961,0,0,1-1.08-.1V17.2a2.288,2.288,0,0,1,.78-.1,20.326,20.326,0,0,0,2.46,8.7,17.218,17.218,0,0,1-1.66,2.16,9.348,9.348,0,0,1-2.6,1.88l.92,1.7a4.606,4.606,0,0,1,.38-.34,17.932,17.932,0,0,0,3.82-3.96,22.616,22.616,0,0,0,3.4,3.92,1.109,1.109,0,0,1,.3.38l1.04-1.6A3.025,3.025,0,0,1-87.4,29.58Zm-14.72-2.86v-3h3.58v2.02A28.376,28.376,0,0,1-102.12,26.72Zm3.58-4.54h-3.58V19.62h3.58Zm0-4.1h-3.58v-2.2h3.58Zm5-.98h4.46a25.323,25.323,0,0,1-2.52,7.26A20.154,20.154,0,0,1-93.54,17.1Zm16.58,6.94-1.3.18a22.121,22.121,0,0,1,.96,5.32l1.58-1.08a5.238,5.238,0,0,1-.24-.92q-.06-.34-.46-1.78A12.93,12.93,0,0,0-76.96,24.04Zm-5.78-.06q-.54,4.12-1.52,5.46l1.46,1.3q.02-.12.16-.58a29.777,29.777,0,0,0,1.18-5.24,2.356,2.356,0,0,1,.18-.84Zm4.46-2.6a10.633,10.633,0,0,1-2.28.4,35.211,35.211,0,0,0,4.22-5.5,4.818,4.818,0,0,1,.58-.8l-1.78-.4a4.618,4.618,0,0,1-.72,1.48,21.216,21.216,0,0,1-1.6,2.32l-1-1.38a13.759,13.759,0,0,0,1.98-2.7q.18-.34.76-1.18l-1.82-.38a7.891,7.891,0,0,1-1.78,3.28q-.78-.78-.78-.94l-1.6.82a7.015,7.015,0,0,1,1.18,1.04A20.383,20.383,0,0,1-80.74,20a18.63,18.63,0,0,1-1.74,1.96q-.9.04-1.26.04l-.66-.04.64,1.7h.02a4.516,4.516,0,0,1,1.24-.22q1.04-.12,2.06-.3v7.34a2.364,2.364,0,0,1-.1.74h1.72a3.787,3.787,0,0,1-.1-.88V22.86l.92-.24a4.885,4.885,0,0,1,.26,1.42l1.62-.62a2.576,2.576,0,0,1-.3-.64l-.16-.62a18.765,18.765,0,0,0-.8-2.64l-1.36.44A6.352,6.352,0,0,1-78.28,21.38Zm5.84-4.56h3.38l-.42,2.44h-2.54Zm2.84,11.34.82,1.74h1.3q1.06,0,1.06-1.18V22.76H-70V20.78h3.1V21.9l-.08.72h1.68a4.944,4.944,0,0,1-.1-.84V19.26h-2.62l.4-2.44h.84a2.827,2.827,0,0,1,.76.1V15.2a6.526,6.526,0,0,1-1.36.1H-70V14.16l.1-.64h-1.7a3,3,0,0,1,.1.72V15.3h-3.08a3.034,3.034,0,0,1-.9-.1v1.72a1.716,1.716,0,0,1,.7-.1h.9l.42,2.44H-76.1l-.02,2.76a4.04,4.04,0,0,1-.08.6h1.7a6.132,6.132,0,0,1-.08-.84v-1h3.08v1.98h-3.58v6.02a3.242,3.242,0,0,1-.1.86h1.72a1.8,1.8,0,0,1-.1-.84V24.28h2.06v6.08a3.66,3.66,0,0,1-.1.92h1.7a4.14,4.14,0,0,1-.1-.92V24.28h2.08v3.8q0,.38-.54.38A2.469,2.469,0,0,1-69.6,28.16Zm6.62-9.74,1.28,1.48a16.294,16.294,0,0,0,4.34-5.36,7.341,7.341,0,0,1,.44-.82l-1.5-.54A10.651,10.651,0,0,1-62.98,18.42Zm3.06,11.9a4.331,4.331,0,0,1-.1.96h1.7a4.164,4.164,0,0,1-.1-.96v-8.2a11.951,11.951,0,0,0,1.82-3.64l-1.68-.32A10.565,10.565,0,0,1-63,24.52l1.26,1.54q.56-.56.88-.82a10.972,10.972,0,0,0,.94-1Zm4.32-9.46a8.349,8.349,0,0,0,1.84-1.06q1.32-1.2,1.32-4.16v-.4h3.68q-.1,1.8-.1,3.5,0,1.64,2.38,1.64a2.261,2.261,0,0,0,1.92-.66A3.427,3.427,0,0,0-44,17.76a1.283,1.283,0,0,1,.08-.54l-1.7-1.16q.08.88.08,1.72t-.26,1.02a5.36,5.36,0,0,1-.92.08q-.44,0-.48-.3l.04-4.86h-7.1a11.575,11.575,0,0,1,.28,2.32,3.053,3.053,0,0,1-.82,2.4,3.484,3.484,0,0,1-1.66.58Zm6.24,6.56a9.072,9.072,0,0,0,3.62-5.14l-1.02-1.02H-55.1a3.854,3.854,0,0,1-.96-.1v1.72a2.744,2.744,0,0,1,.96-.1h.16a12.55,12.55,0,0,0,3.34,4.58,12.319,12.319,0,0,1-5.7,2.16l.92,1.82a18.382,18.382,0,0,0,5.84-3q1.64,1.66,6.14,3l.9-1.82A10.779,10.779,0,0,1-49.36,27.42Zm-3.98-4.64h5.78a8.44,8.44,0,0,1-2.98,3.66A8.7,8.7,0,0,1-53.34,22.78Zm29.8-1.48a2.484,2.484,0,0,1,.74.1V19.7a7.739,7.739,0,0,1-1.34.08h-2.7V14.46a4.6,4.6,0,0,1,.1-.94h-1.7a3.878,3.878,0,0,1,.1.9v5.36h-3.12a2.1,2.1,0,0,1-.92-.1V21.4a6.22,6.22,0,0,1,1.34-.1h2.7v7.62H-32.4l-.88-.08v1.7a3.538,3.538,0,0,1,.86-.1h9.26a2.04,2.04,0,0,1,.86.1v-1.7a3.594,3.594,0,0,1-.78.08h-3.76V21.3Zm-8.78,3.2a3.932,3.932,0,0,1-.78-.52l-2.24-1.84a18.2,18.2,0,0,0,2.14-2.98,10.917,10.917,0,0,0,.68-1.3l-1.04-1.2h-2.12V14.6a4.964,4.964,0,0,1,.08-1.12h-1.7a2.337,2.337,0,0,1,.1.7v2.48h-1.84a3.811,3.811,0,0,1-.92-.1v1.7a6.588,6.588,0,0,1,1.16-.1h4.46A17.9,17.9,0,0,1-41,25.04l1.08,1.66,2.72-2.54v6.2a3.971,3.971,0,0,1-.1.92h1.7l-.08-.98V23.86l2.48,2.6ZM-.7,29.58a17.166,17.166,0,0,1-6.64-2.82,25.426,25.426,0,0,0,3-1.28q2.04-.96,2.18-.98l-1.5-1.26a8.726,8.726,0,0,1-1.24.84,18.2,18.2,0,0,1-3.58,1.78,18.158,18.158,0,0,1-1.66-1.54q-.78-.8-.78-.98l-1.68.64.52.48.96.96q.82.82,3.02,2.58a22.5,22.5,0,0,0,4.06,2.32,18.24,18.24,0,0,1,2.08.96Zm-14.96-.38a15.089,15.089,0,0,1-2.18.2q-.88,0-1.34-.02l.72,1.78a4.435,4.435,0,0,1,.9-.2q3.6-.58,7.3-1.54a5.038,5.038,0,0,1,.86-.14v-1.7a23.5,23.5,0,0,1-4.84,1.32V23.02H-1.62l.74.08V21.7a4.7,4.7,0,0,1-.88.08H-14.12V20.4H-4.8a3.567,3.567,0,0,1,.9.1V19.08a4.085,4.085,0,0,1-.84.08h-9.38V17.82H-4.8a3.287,3.287,0,0,1,.9.1V16.5a4.085,4.085,0,0,1-.84.08h-9.38V15.06h9.96a1.8,1.8,0,0,1,.84.1v-1.5a2.986,2.986,0,0,1-.8.1H-15.54v8.02H-18.2a4.128,4.128,0,0,1-.88-.08v1.4a4.7,4.7,0,0,1,.88-.08h2.54Z" transform="translate(368 43)" fill="#fff"/>
    </g>
    <g transform="matrix(1, 0, 0, 1, 331, 1181)" filter="url(#Path_59)">
      <path id="Path_59-2" data-name="Path 59" d="M33.12,1.008a8.7,8.7,0,0,1-.24,2.112h4.128a5.759,5.759,0,0,1-.24-2.112v-18.24H13.248l-.048-8.4H40.464a16.968,16.968,0,0,1,3.744.24V-29.52a16.294,16.294,0,0,1-3.984.24h-8.88v-8.208a8,8,0,0,1,.24-2.112H27.5a9.09,9.09,0,0,1,.24,2.112v8.208H13.2v-7.728a8,8,0,0,1,.24-2.112H9.36a10.788,10.788,0,0,1,.192,2.112v14.832q0,18.96-7.1,21.744l3.216,3.5L7.344,1.2q4.416-4.416,5.52-14.784H33.12ZM82.608-9.312l3.984-1.44Q85.056-16.128,78.96-22.7l-3.7,1.584A24.022,24.022,0,0,1,82.608-9.312ZM79.44-1.488l2.928,4.56q4.944,0,5.76-.048,4.7-.288,4.7-3.408V-27.312h3.84a7.2,7.2,0,0,1,1.728.24v-4.08a9.8,9.8,0,0,1-2.016.192H92.832V-37.3a9.015,9.015,0,0,1,.24-2.256h-4.08a10.162,10.162,0,0,1,.24,2.256v6.336H76.7a8.968,8.968,0,0,1-2.016-.192v4.08a8.284,8.284,0,0,1,2.016-.24H89.232V-1.776q0,1.344-3.024,1.344A48.83,48.83,0,0,1,79.44-1.488ZM67.392-28.032v-.048h3.744a7.916,7.916,0,0,1,2.016.24v-4.08a9.489,9.489,0,0,1-2.352.24H67.248v-5.664a8.341,8.341,0,0,1,.24-2.256H63.36a6.165,6.165,0,0,1,.24,2.208v5.712H57.552a7.04,7.04,0,0,1-1.968-.24v4.08a10.493,10.493,0,0,1,2.544-.24H63.5Q60.432-16.416,56.256-9.888L54.72-8.016l3.408,4.272a27.258,27.258,0,0,1,2.208-5.424A51.883,51.883,0,0,0,63.6-18.336V1.344a6.272,6.272,0,0,1-.24,1.776h4.128a6.165,6.165,0,0,1-.24-2.208V-20.832q3.888,8.592,3.888,9.408l2.592-3.744q-.1-.1-1.056-1.92l-4.7-8.928Q67.44-27.984,67.392-28.032Zm78,1.1a10.14,10.14,0,0,1-.24,2.544h4.08a10.14,10.14,0,0,1-.24-2.544v-9.024H130.464v-2.3a6.865,6.865,0,0,1,.192-2.064h-4.032a7.164,7.164,0,0,1,.192,2.064v2.3H108.288v8.736a11.055,11.055,0,0,1-.24,2.832h4.08a11.758,11.758,0,0,1-.24-2.832v-5.52h33.5Zm2.16,29.04a10.394,10.394,0,0,1,2.3.24V-1.584a9.993,9.993,0,0,1-2.3.24H109.776a8.492,8.492,0,0,1-2.352-.24V2.352a9.612,9.612,0,0,1,2.3-.24ZM117.84-28.848a14.156,14.156,0,0,1-3.12-.192v3.7a14.808,14.808,0,0,1,3.072-.24h22.56a8,8,0,0,1,2.112.24v-3.7a11.542,11.542,0,0,1-2.16.192Zm23.376,6.432H116.064V-5.472a9.612,9.612,0,0,1-.24,2.3h4.128a7.455,7.455,0,0,1-.24-1.872h17.856a6.974,6.974,0,0,1-.24,1.872h4.128a7.02,7.02,0,0,1-.24-2.4Zm-21.5,3.264h17.856v3.744H119.712Zm0,10.7V-12.24h17.856v3.792ZM197.136.768a9.852,9.852,0,0,1-.24,2.352h4.128a12.76,12.76,0,0,1-.24-2.592v-16.7H177.84V.528a11.906,11.906,0,0,1-.24,2.592h4.128a6.549,6.549,0,0,1-.24-2.352ZM187.2-23.28l2.5,4.224q3.5.048,6.72.048,3.84,0,4.416-3.072a90.484,90.484,0,0,0,1.728-14.928l-1.92-1.008H178.8a8.4,8.4,0,0,1-2.3-.288v4.08a9.774,9.774,0,0,1,2.544-.288h6.912q-2.736,9.5-10.368,13.824l2.784,3.6q9.456-7.2,11.472-17.424h9.024q-.672,9.744-1.824,11.76a6.5,6.5,0,0,1-2.16.192A27.4,27.4,0,0,1,187.2-23.28ZM163.44-33.456h7.488v10.608H163.44Zm0,25.056V-19.2h7.488V-8.4Zm7.488,3.648a9.143,9.143,0,0,1-.24,2.352h4.128a9.53,9.53,0,0,1-.24-2.208V-37.1H159.84V-1.968a8.216,8.216,0,0,1-.24,2.16h4.08a8.922,8.922,0,0,1-.24-2.16V-4.752Zm10.56,1.872v-9.7h15.648v9.7Z" transform="translate(416 70)" fill="#fff"/>
    </g>
  </g>
</svg>
