<svg id="shacho_name_mobile" xmlns="http://www.w3.org/2000/svg" xmlns:xlink="http://www.w3.org/1999/xlink" width="578.079" height="71.252" viewBox="0 0 578.079 71.252">
  <defs>
    <linearGradient id="linear-gradient" x1="1.058" y1="0.532" x2="0.013" y2="0.526" gradientUnits="objectBoundingBox">
      <stop offset="0" stop-color="#a1de64"/>
      <stop offset="1" stop-color="#3fc26f"/>
    </linearGradient>
    <filter id="Path_64" x="54.417" y="8.34" width="235.855" height="59.963" filterUnits="userSpaceOnUse">
      <feOffset dy="3" input="SourceAlpha"/>
      <feGaussianBlur stdDeviation="3" result="blur"/>
      <feFlood flood-opacity="0.161"/>
      <feComposite operator="in" in2="blur"/>
      <feComposite in="SourceGraphic"/>
    </filter>
    <filter id="Path_65" x="295.009" y="11.714" width="193.098" height="56.01" filterUnits="userSpaceOnUse">
      <feOffset dy="3" input="SourceAlpha"/>
      <feGaussianBlur stdDeviation="3" result="blur-2"/>
      <feFlood flood-opacity="0.161"/>
      <feComposite operator="in" in2="blur-2"/>
      <feComposite in="SourceGraphic"/>
    </filter>
  </defs>
  <path id="Path_34" data-name="Path 34" d="M0,0H578.079L539.143,71.252H0Z" transform="translate(578.079 71.252) rotate(180)" opacity="0.82" fill="url(#linear-gradient)"/>
  <g transform="matrix(1, 0, 0, 1, 0, 0)" filter="url(#Path_64)">
    <path id="Path_64-2" data-name="Path 64" d="M-217.277-2.21a14.047,14.047,0,0,0,1.7-4.624V.459a2.112,2.112,0,0,1-.085.629h1.462a2.184,2.184,0,0,1-.085-.782V-7.446l1.445,2.72.544-2.023q-.323-.442-.663-.9l-1.224-1.887-.1-.425h.986a4.942,4.942,0,0,1,.9.085v-1.445a5.938,5.938,0,0,1-.935.068h-.952V-13.26a1.781,1.781,0,0,1,.085-.782h-1.462a2.184,2.184,0,0,1,.085.782v2.006h-1.547a4.718,4.718,0,0,1-.867-.068v1.445a5.119,5.119,0,0,1,1.02-.085h1.394V-9.6a11.144,11.144,0,0,1-2.873,5.9A6.172,6.172,0,0,1-217.277-2.21Zm9.2,3.315h1.462A3.008,3.008,0,0,1-206.7.374V-4.641A21.627,21.627,0,0,0-203.83-.952a2.308,2.308,0,0,1,.51.561l.816-1.581a12.589,12.589,0,0,1-3.808-4h3.2a1.979,1.979,0,0,1,.646.085V-7.327a9.465,9.465,0,0,1-1.411.068H-206.7V-9.571h2.907a1.85,1.85,0,0,1,.612.085v-1.462a5.632,5.632,0,0,1-1.19.085H-206.7v-2.4a3.3,3.3,0,0,1,.085-.765h-1.462a3.161,3.161,0,0,1,.085.765v2.4h-1.717q.221-.731.238-.782l.374-1.513-1.292-.459q-.374,3.383-2.159,4.743l1.122,1.36.476-.731a8.852,8.852,0,0,0,.765-1.326H-208v2.312h-3.332a4.978,4.978,0,0,1-.782-.068v1.445a5.07,5.07,0,0,1,1.309-.085h2.4a11.045,11.045,0,0,1-4.437,4.335l.867,1.547a3.519,3.519,0,0,0,.748-.6A19.97,19.97,0,0,0-208-4.573V.357A1.651,1.651,0,0,1-208.08,1.105Zm17.918-2.686.017-1.479a3.021,3.021,0,0,1-.833.323l-3.111.867V-5.9h2.482a3.6,3.6,0,0,1,.8.085V-7.259a3.456,3.456,0,0,1-.8.085h-6.239a2.579,2.579,0,0,1-.765-.085h-.034v1.445h.034a3.3,3.3,0,0,1,.765-.085h2.482v4.318a29.21,29.21,0,0,1-3.077.527l-1.309.034.833,1.547h.017a1.936,1.936,0,0,1,.646-.17q4.182-.833,7.276-1.768Zm4.624-9.826a8.885,8.885,0,0,0-2.584-2.312l-1.156.85a3.545,3.545,0,0,1,.969.629,14.4,14.4,0,0,1,1.258,1.122,2.456,2.456,0,0,1,.425.629Zm-3.859-1.785a5.756,5.756,0,0,1,.085-.8h-1.462a4.5,4.5,0,0,1,.1,1.139q.034,1.054.17,2.4h-8.143a2.2,2.2,0,0,1-.765-.085v1.462a3.539,3.539,0,0,1,.816-.085h8.245q1,6.766,2.737,9.3.782,1.1,1.479,1.1.969,0,1.292-1.819.136-.765.2-1.258A1.467,1.467,0,0,1-184.5-2.4l-1.343-1.241v.357a9.926,9.926,0,0,1-.17,1.989q-.17.833-.272.884-.1.068-.272-.2a14.022,14.022,0,0,1-1.564-3.927,40.62,40.62,0,0,1-.918-4.624h3.264a1.954,1.954,0,0,1,.663.085v-1.445a3.959,3.959,0,0,1-.8.068h-3.281Q-189.346-11.8-189.4-13.192Zm20.587,14.6,1.53-.595-.9-1.377a26.292,26.292,0,0,0-1.768-2.227l-1.122-1.19-1.258.7.663.6q.306.272,1,1.037a35.415,35.415,0,0,1-5.372.612A12.824,12.824,0,0,0-174.284-4.3h6.545a3.16,3.16,0,0,1,.765.085v-1.5a3.16,3.16,0,0,1-.765.085h-12.019a2.832,2.832,0,0,1-.748-.085v1.5a3.083,3.083,0,0,1,.748-.085h4.012a12.3,12.3,0,0,1-2.108,3.332,5.006,5.006,0,0,1-1.122.051,14.129,14.129,0,0,1-1.615-.068l.544,1.666a1.981,1.981,0,0,1,.748-.1q.612,0,2.431-.1,3.349-.306,7.14-.986A4.218,4.218,0,0,1-168.81,1.411Zm-1.734-9.01a2.221,2.221,0,0,1,.629.085V-9.027a2.183,2.183,0,0,1-.782.085h-6.086a2.183,2.183,0,0,1-.782-.085v1.513h.034a3.083,3.083,0,0,1,.748-.085Zm4.794-1.122a18.934,18.934,0,0,1-7.157-5.219h-1.649a19.126,19.126,0,0,1-7.174,5.355l.867,1.377a24.731,24.731,0,0,0,7.038-5.457h.17a27.5,27.5,0,0,0,7.072,5.44Zm17.221,1.326a2.112,2.112,0,0,1,.629.085V-8.755a6.578,6.578,0,0,1-1.139.068h-2.295v-4.522a3.912,3.912,0,0,1,.085-.8h-1.445a3.3,3.3,0,0,1,.085.765v4.556h-2.652a1.781,1.781,0,0,1-.782-.085V-7.31a5.287,5.287,0,0,1,1.139-.085h2.295V-.918h-3.451l-.748-.068V.459a3.007,3.007,0,0,1,.731-.085h7.871a1.734,1.734,0,0,1,.731.085V-.986a3.055,3.055,0,0,1-.663.068h-3.2V-7.395Zm-7.463,2.72a3.342,3.342,0,0,1-.663-.442l-1.9-1.564a15.467,15.467,0,0,0,1.819-2.533,9.279,9.279,0,0,0,.578-1.105l-.884-1.02h-1.8V-13.09a4.22,4.22,0,0,1,.068-.952h-1.445a1.986,1.986,0,0,1,.085.595v2.108H-161.7a3.24,3.24,0,0,1-.782-.085v1.445a5.6,5.6,0,0,1,.986-.085h3.791a15.213,15.213,0,0,1-5.661,5.848l.918,1.411,2.312-2.159V.306a3.375,3.375,0,0,1-.085.782h1.445l-.068-.833V-5.219l2.108,2.21Zm19.006-9.01a.579.579,0,0,1,.017-.187l-1.632.1a6.084,6.084,0,0,1,.17.8l.255,2.516-4.692.408q-.238.017-.833.017l.153,1.479a4.04,4.04,0,0,1,.816-.17l4.692-.425.306,3.009-5.593.612q-.544.051-.68.051h-.153l.238,1.428a3.215,3.215,0,0,1,.765-.153l5.559-.629.493,4.709q.034.612.034.952L-135.456.7a3.185,3.185,0,0,1-.17-.816L-136.119-5l5.406-.612.748-.034-.17-1.445a3.008,3.008,0,0,1-.731.187l-5.389.6-.306-2.958,4.522-.408q.255-.017.459-.017t.374.017l-.153-1.479a3.966,3.966,0,0,1-.8.17l-4.522.391Q-136.986-13.515-136.986-13.685ZM-116.28-3.417l3.383-4.5-.935-.9L-120.19-7.7l-.714-2.7-1.258.357.7,2.6-3.468.6.374,1.309,3.4-.663,1.87,7.174L-118.048.6l-1.836-7.055,4.862-.9-2.652,3.553Zm11.475-2.618-.051.748,1.5.2a3.441,3.441,0,0,1-.085-.765V-12.24a2.177,2.177,0,0,1,.085-.646l-1.5-.425a5.92,5.92,0,0,1,.051.8Zm1.53,5.134L-102.1.476q6.29-2.312,6.29-7.123v-5.865a1.616,1.616,0,0,1,.068-.442l-1.5-.442a3.23,3.23,0,0,1,.1.9v5.1Q-97.138-2.108-103.275-.9Zm15.589-11.628q-.7-.085-.935-.119l.459,1.479q.833-.068,1.088-.068l10.115-.017a11.361,11.361,0,0,1-3.859,4.131l.952,1.173a15.794,15.794,0,0,0,4.488-5.525q.119-.136.238-.255l-1.411-1.122-.289.323Zm6.358,3.3L-82.892-9.5a6.894,6.894,0,0,1,.068.833v.391q-.459,6.171-4.335,7.463L-86.054.357q4.25-1.921,4.522-8.636A4.423,4.423,0,0,1-81.328-9.231ZM-63.58-7.106q-.629,5.457-4.743,6.324L-67.065.51q4.352-1.717,4.947-7.616h5.151a1.911,1.911,0,0,1,.493.068v-1.5a2.486,2.486,0,0,1-.85.085H-70.091a3.036,3.036,0,0,1-.561-.085v1.513a5.073,5.073,0,0,1,.986-.085Zm2.363-5.406h-6.817a.634.634,0,0,1-.408-.085v1.428a1.907,1.907,0,0,1,.833-.085h6.392a3.766,3.766,0,0,1,.833.085V-12.6A2.409,2.409,0,0,1-61.217-12.512Zm.867-.952a6.374,6.374,0,0,1,1.411,3.128l1.139-.408A6.413,6.413,0,0,0-59.33-13.7Zm3.145-.612-1.071.255a5.558,5.558,0,0,1,1.411,3.128l1.122-.408A7.077,7.077,0,0,0-57.205-14.076Zm15.2.068a6.511,6.511,0,0,1,1.428,3.145l1.139-.425A6.427,6.427,0,0,0-41.021-14.3Zm3.111-.646-1.037.289a5.5,5.5,0,0,1,1.428,3.128l1.122-.408A7.193,7.193,0,0,0-38.9-14.654Zm-14.6,4.335.255,1.513a4.429,4.429,0,0,1,1-.085h2.669v3.842a3.939,3.939,0,0,1-.085.765h1.445a5.805,5.805,0,0,1-.068-.884V-8.942h4.437v1.989q0,4.879-5.576,6.035L-48.348.306q5.831-1.581,5.831-6.511V-8.959h3.23l.748.034-.17-1.479a1.483,1.483,0,0,1-.782.17l-3.026.017v-2.924a3.4,3.4,0,0,1,.085-.816l-1.5-.238a3.832,3.832,0,0,1,.085.816v3.162H-48.28v-2.89a4.607,4.607,0,0,1,.068-.85l-1.445-.238a4.334,4.334,0,0,1,.085.884v3.094h-3.145A1.573,1.573,0,0,1-53.5-10.319Zm26.146,2.6.1.493V-.306a3.276,3.276,0,0,1-.085.816h1.513a3.681,3.681,0,0,1-.085-.816V-7.327l-.289-.68.034-.391a33.016,33.016,0,0,0,4.539-3.485q.561-.561.867-.85h.017l-1.428-.986a1.95,1.95,0,0,1-.714,1.173A24.815,24.815,0,0,1-33.9-6.613l.663,1.394,1.7-.561A33.028,33.028,0,0,0-27.353-7.718ZM-10.132-9.6a17.514,17.514,0,0,0-3.57-3.077L-14.79-11.56a13.645,13.645,0,0,1,3.5,3.128ZM-14.62-.952l.9,1.479Q-5.848-1.224-2.159-9.69l.34-.663-1.615-.476a2.462,2.462,0,0,1-.2.731A17.605,17.605,0,0,1-7.531-4.25,12.355,12.355,0,0,1-14.62-.952Zm-97.8,28.108a1.333,1.333,0,0,0,.7-.272q.408-.272.884-3.009l-1.411-1.173v.629a7.633,7.633,0,0,1-.221,2.312l-.085-.051q-2.329-.986-3.536-7.463l4.641-.442.51.017.017-1.462a5.661,5.661,0,0,1-.935.187l-4.4.493a37.2,37.2,0,0,1-.323-4.318,1.941,1.941,0,0,1-.017-.272,1.915,1.915,0,0,1,.034-.34l-1.411.017a9.042,9.042,0,0,1,.1,1.377q.034,1.292.323,3.655l-3.383.323q-.17.017-.374.017-.187,0-.408-.017v1.445q.68-.136.918-.17l3.451-.391q.833,6.086,3.23,8.075A2.919,2.919,0,0,0-112.421,27.156Zm.612-12.393a7.783,7.783,0,0,0-2.618-2.431l-1.071.8a8.2,8.2,0,0,1,2.567,2.431Zm-11.084-3.213a23.593,23.593,0,0,1-3.587,7.82l.884,1.275a23.024,23.024,0,0,0,1.479-2.567v8.211a4.469,4.469,0,0,1-.085.8h1.462a2.257,2.257,0,0,1-.085-.8V15.239q.629-1.479,1.292-3.247Zm25.364,10.727a9.422,9.422,0,0,1-1.428-2.567H-93.4a2.247,2.247,0,0,1,.578.068V18.571a3.14,3.14,0,0,1-.68.068h-6.154V17.177h4.981a2.112,2.112,0,0,1,.629.085V16.038a3.085,3.085,0,0,1-.7.068h-4.913V14.661H-94.2a3.141,3.141,0,0,1,.68.068V13.522a3.294,3.294,0,0,1-.68.068h-5.457v-.884a2.332,2.332,0,0,1,.085-.816h-1.462a2.332,2.332,0,0,1,.085.816v.884h-5.44a3.085,3.085,0,0,1-.7-.068v1.207a3.382,3.382,0,0,1,.7-.068h5.44v1.445h-4.981a1.85,1.85,0,0,1-.629-.068v1.224a1.237,1.237,0,0,1,.629-.085h4.981v1.462h-6.137a2.471,2.471,0,0,1-.7-.068v1.207a3.14,3.14,0,0,1,.68-.068h5.287a10.5,10.5,0,0,1-5.644,2.839,6.38,6.38,0,0,1-.918.085l.884,1.513q.357-.136,1.139-.374A18.016,18.016,0,0,0-103.9,22.7v2.839a23.709,23.709,0,0,1-2.992.17l.6,1.513A5.988,5.988,0,0,1-104.975,27q1.139-.136,2.516-.408t2.5-.578a8.281,8.281,0,0,1,1.36-.306q-.034-.7-.085-1.411a16.136,16.136,0,0,1-3.944,1.02V21.886a10.025,10.025,0,0,0,1.836-1.53q.476-.544.578-.646a11.318,11.318,0,0,0,1.938,3.655,12.2,12.2,0,0,0,3.723,3.043q1.377.663,1.445.731l.884-1.632a3.138,3.138,0,0,1-.986-.136,8.635,8.635,0,0,1-3.6-2.244,20.017,20.017,0,0,0,2.567-1.989l.629-.51-1.224-.85A11.569,11.569,0,0,1-97.529,22.277Zm13.77,1.326v2.839a3.571,3.571,0,0,1-.085.646h1.462a2.257,2.257,0,0,1-.085-.8V14h.34l.595.068V12.621a3.007,3.007,0,0,1-.731.085h-6.46a2.954,2.954,0,0,1-.8-.085v1.445a4.12,4.12,0,0,1,.8-.068h.646V23.45a8.415,8.415,0,0,1-1.19.1l-.833-.017.731,1.547A2.415,2.415,0,0,1-88.6,24.9,29.963,29.963,0,0,0-83.759,23.6Zm9.469,2.04a12.689,12.689,0,0,1-2.856-3.213A20.693,20.693,0,0,0-74.409,14.9l-.578-1.156h-5.474a4.217,4.217,0,0,1-.918-.085V15.12a1.945,1.945,0,0,1,.663-.085,17.277,17.277,0,0,0,2.091,7.4,14.636,14.636,0,0,1-1.411,1.836,7.946,7.946,0,0,1-2.21,1.6l.782,1.445a3.915,3.915,0,0,1,.323-.289,15.242,15.242,0,0,0,3.247-3.366A19.223,19.223,0,0,0-75,26.986a.943.943,0,0,1,.255.323l.884-1.36A2.571,2.571,0,0,1-74.29,25.643ZM-86.8,23.212v-2.55h3.043v1.717A24.119,24.119,0,0,1-86.8,23.212Zm3.043-3.859H-86.8V17.177h3.043Zm0-3.485H-86.8V14h3.043Zm4.25-.833h3.791a21.524,21.524,0,0,1-2.142,6.171A17.131,17.131,0,0,1-79.509,15.035Zm14.093,5.9-1.105.153a18.8,18.8,0,0,1,.816,4.522l1.343-.918a4.453,4.453,0,0,1-.2-.782q-.051-.289-.391-1.513A10.99,10.99,0,0,0-65.416,20.934Zm-4.913-.051a11.216,11.216,0,0,1-1.292,4.641l1.241,1.1q.017-.1.136-.493a25.31,25.31,0,0,0,1-4.454,2,2,0,0,1,.153-.714Zm3.791-2.21a9.038,9.038,0,0,1-1.938.34,29.93,29.93,0,0,0,3.587-4.675,4.1,4.1,0,0,1,.493-.68l-1.513-.34a3.926,3.926,0,0,1-.612,1.258,18.033,18.033,0,0,1-1.36,1.972l-.85-1.173a11.7,11.7,0,0,0,1.683-2.3q.153-.289.646-1l-1.547-.323a6.708,6.708,0,0,1-1.513,2.788q-.663-.663-.663-.8l-1.36.7a5.962,5.962,0,0,1,1,.884A17.326,17.326,0,0,1-68.629,17.5a15.836,15.836,0,0,1-1.479,1.666q-.765.034-1.071.034l-.561-.034.544,1.445h.017a3.838,3.838,0,0,1,1.054-.187q.884-.1,1.751-.255v6.239a2.01,2.01,0,0,1-.085.629H-67a3.22,3.22,0,0,1-.085-.748V19.931l.782-.2a4.152,4.152,0,0,1,.221,1.207l1.377-.527a2.189,2.189,0,0,1-.255-.544l-.136-.527a15.951,15.951,0,0,0-.68-2.244l-1.156.374A5.4,5.4,0,0,1-66.538,18.673Zm4.964-3.876H-58.7l-.357,2.074h-2.159Zm2.414,9.639.7,1.479h1.1q.9,0,.9-1V19.846H-59.5V18.163h2.635v.952l-.068.612h1.428a4.2,4.2,0,0,1-.085-.714V16.871h-2.227l.34-2.074h.714a2.4,2.4,0,0,1,.646.085V13.42a5.547,5.547,0,0,1-1.156.085H-59.5v-.969l.085-.544H-60.86a2.55,2.55,0,0,1,.085.612v.9h-2.618a2.579,2.579,0,0,1-.765-.085v1.462a1.459,1.459,0,0,1,.6-.085h.765l.357,2.074h-2.244l-.017,2.346a3.434,3.434,0,0,1-.068.51h1.445a5.212,5.212,0,0,1-.068-.714v-.85h2.618v1.683h-3.043v5.117a2.756,2.756,0,0,1-.085.731h1.462a1.526,1.526,0,0,1-.085-.714V21.138h1.751v5.168a3.111,3.111,0,0,1-.085.782h1.445a3.519,3.519,0,0,1-.085-.782V21.138h1.768v3.23q0,.323-.459.323A2.1,2.1,0,0,1-59.16,24.436Zm5.627-8.279,1.088,1.258a13.85,13.85,0,0,0,3.689-4.556,6.239,6.239,0,0,1,.374-.7l-1.275-.459A9.053,9.053,0,0,1-53.533,16.157Zm2.6,10.115a3.681,3.681,0,0,1-.085.816h1.445a3.539,3.539,0,0,1-.085-.816V19.3a10.158,10.158,0,0,0,1.547-3.094l-1.428-.272a8.98,8.98,0,0,1-4.012,5.406l1.071,1.309q.476-.476.748-.7a9.326,9.326,0,0,0,.8-.85Zm3.672-8.041a7.1,7.1,0,0,0,1.564-.9,4.623,4.623,0,0,0,1.122-3.536v-.34h3.128q-.085,1.53-.085,2.975,0,1.394,2.023,1.394a1.922,1.922,0,0,0,1.632-.561A2.913,2.913,0,0,0-37.4,15.6a1.09,1.09,0,0,1,.068-.459l-1.445-.986q.068.748.068,1.462t-.221.867a4.556,4.556,0,0,1-.782.068q-.374,0-.408-.255l.034-4.131h-6.035a9.839,9.839,0,0,1,.238,1.972,2.6,2.6,0,0,1-.7,2.04,2.962,2.962,0,0,1-1.411.493Zm5.3,5.576a7.711,7.711,0,0,0,3.077-4.369l-.867-.867h-7.089a3.276,3.276,0,0,1-.816-.085v1.462a2.332,2.332,0,0,1,.816-.085h.136a10.668,10.668,0,0,0,2.839,3.893,10.471,10.471,0,0,1-4.845,1.836l.782,1.547a15.625,15.625,0,0,0,4.964-2.55,12.631,12.631,0,0,0,5.219,2.55l.765-1.547A9.162,9.162,0,0,1-41.956,23.807Zm-3.383-3.944h4.913a7.174,7.174,0,0,1-2.533,3.111A7.4,7.4,0,0,1-45.339,19.863Zm25.33-1.258a2.112,2.112,0,0,1,.629.085V17.245a6.578,6.578,0,0,1-1.139.068h-2.3V12.791a3.912,3.912,0,0,1,.085-.8h-1.445a3.3,3.3,0,0,1,.085.765v4.556h-2.652a1.781,1.781,0,0,1-.782-.085V18.69a5.287,5.287,0,0,1,1.139-.085h2.3v6.477H-27.54l-.748-.068v1.445a3.007,3.007,0,0,1,.731-.085h7.871a1.734,1.734,0,0,1,.731.085V25.014a3.055,3.055,0,0,1-.663.068h-3.2V18.6Zm-7.463,2.72a3.343,3.343,0,0,1-.663-.442l-1.9-1.564a15.467,15.467,0,0,0,1.819-2.533,9.279,9.279,0,0,0,.578-1.1l-.884-1.02h-1.8V12.91a4.22,4.22,0,0,1,.068-.952H-31.7a1.987,1.987,0,0,1,.085.595v2.108h-1.564a3.24,3.24,0,0,1-.782-.085v1.445a5.6,5.6,0,0,1,.986-.085h3.791a15.213,15.213,0,0,1-5.661,5.848l.918,1.411,2.312-2.159v5.27a3.375,3.375,0,0,1-.085.782h1.445l-.068-.833V20.781l2.108,2.21ZM-.6,25.643a14.591,14.591,0,0,1-5.644-2.4,21.612,21.612,0,0,0,2.55-1.088q1.734-.816,1.853-.833l-1.275-1.071a7.417,7.417,0,0,1-1.054.714,15.473,15.473,0,0,1-3.043,1.513,15.434,15.434,0,0,1-1.411-1.309q-.663-.68-.663-.833l-1.428.544.442.408.816.816q.7.7,2.567,2.193a19.123,19.123,0,0,0,3.451,1.972,15.5,15.5,0,0,1,1.768.816Zm-12.716-.323a12.825,12.825,0,0,1-1.853.17q-.748,0-1.139-.017l.612,1.513a3.77,3.77,0,0,1,.765-.17q3.06-.493,6.2-1.309a4.283,4.283,0,0,1,.731-.119V23.943A19.978,19.978,0,0,1-12.1,25.065v-5H-1.377l.629.068v-1.19a3.991,3.991,0,0,1-.748.068H-12V17.84H-4.08a3.032,3.032,0,0,1,.765.085V16.718a3.472,3.472,0,0,1-.714.068H-12V15.647H-4.08a2.794,2.794,0,0,1,.765.085V14.525a3.472,3.472,0,0,1-.714.068H-12V13.3h8.466a1.526,1.526,0,0,1,.714.085V12.111a2.538,2.538,0,0,1-.68.085h-9.707v6.817H-15.47a3.508,3.508,0,0,1-.748-.068v1.19a3.991,3.991,0,0,1,.748-.068h2.159Z" transform="translate(281.87 28.99)" fill="#fff"/>
  </g>
  <g transform="matrix(1, 0, 0, 1, 0, 0)" filter="url(#Path_65)">
    <path id="Path_65-2" data-name="Path 65" d="M28.98.882a7.616,7.616,0,0,1-.21,1.848h3.612a5.039,5.039,0,0,1-.21-1.848v-15.96H11.592l-.042-7.35H35.406a14.847,14.847,0,0,1,3.276.21V-25.83a14.257,14.257,0,0,1-3.486.21h-7.77V-32.8a7,7,0,0,1,.21-1.848h-3.57a7.954,7.954,0,0,1,.21,1.848v7.182H11.55v-6.762a7,7,0,0,1,.21-1.848H8.19a9.44,9.44,0,0,1,.168,1.848V-19.4q0,16.59-6.216,19.026L4.956,2.688,6.426,1.05q3.864-3.864,4.83-12.936H28.98Zm43.3-9.03,3.486-1.26q-1.344-4.7-6.678-10.458L65.856-18.48A21.019,21.019,0,0,1,72.282-8.148ZM69.51-1.3l2.562,3.99q4.326,0,5.04-.042,4.116-.252,4.116-2.982V-23.9h3.36a6.3,6.3,0,0,1,1.512.21v-3.57a8.578,8.578,0,0,1-1.764.168H81.228v-5.544a7.888,7.888,0,0,1,.21-1.974h-3.57a8.891,8.891,0,0,1,.21,1.974v5.544H67.116a7.847,7.847,0,0,1-1.764-.168v3.57a7.248,7.248,0,0,1,1.764-.21H78.078V-1.554q0,1.176-2.646,1.176A42.726,42.726,0,0,1,69.51-1.3ZM58.968-24.528v-.042h3.276a6.926,6.926,0,0,1,1.764.21v-3.57a8.3,8.3,0,0,1-2.058.21H58.842v-4.956a7.3,7.3,0,0,1,.21-1.974H55.44a5.394,5.394,0,0,1,.21,1.932v5H50.358a6.16,6.16,0,0,1-1.722-.21v3.57a9.181,9.181,0,0,1,2.226-.21h4.7Q52.878-14.364,49.224-8.652L47.88-7.014l2.982,3.738a23.851,23.851,0,0,1,1.932-4.746,45.4,45.4,0,0,0,2.856-8.022V1.176a5.488,5.488,0,0,1-.21,1.554h3.612A5.394,5.394,0,0,1,58.842.8V-18.228q3.4,7.518,3.4,8.232l2.268-3.276q-.084-.084-.924-1.68l-4.116-7.812Q59.01-24.486,58.968-24.528Zm68.25.966a8.872,8.872,0,0,1-.21,2.226h3.57a8.872,8.872,0,0,1-.21-2.226v-7.9H114.156v-2.016a6.008,6.008,0,0,1,.168-1.806H110.8a6.268,6.268,0,0,1,.168,1.806v2.016H94.752v7.644a9.674,9.674,0,0,1-.21,2.478h3.57a10.288,10.288,0,0,1-.21-2.478v-4.83h29.316Zm1.89,25.41a9.1,9.1,0,0,1,2.016.21V-1.386a8.744,8.744,0,0,1-2.016.21H96.054A7.43,7.43,0,0,1,94-1.386V2.058a8.411,8.411,0,0,1,2.016-.21Zm-26-27.09a12.386,12.386,0,0,1-2.73-.168v3.234a12.957,12.957,0,0,1,2.688-.21h19.74a7,7,0,0,1,1.848.21V-25.41a10.1,10.1,0,0,1-1.89.168Zm20.454,5.628H101.556V-4.788a8.411,8.411,0,0,1-.21,2.016h3.612a6.523,6.523,0,0,1-.21-1.638h15.624a6.1,6.1,0,0,1-.21,1.638h3.612a6.142,6.142,0,0,1-.21-2.1Zm-18.816,2.856h15.624v3.276H104.748Zm0,9.366V-10.71h15.624v3.318ZM172.494.672a8.621,8.621,0,0,1-.21,2.058H175.9a11.165,11.165,0,0,1-.21-2.268V-14.154H155.61V.462a10.418,10.418,0,0,1-.21,2.268h3.612A5.73,5.73,0,0,1,158.8.672ZM163.8-20.37l2.184,3.7q3.066.042,5.88.042,3.36,0,3.864-2.688a79.175,79.175,0,0,0,1.512-13.062l-1.68-.882H156.45a7.351,7.351,0,0,1-2.016-.252v3.57a8.552,8.552,0,0,1,2.226-.252h6.048q-2.394,8.316-9.072,12.1l2.436,3.15q8.274-6.3,10.038-15.246h7.9q-.588,8.526-1.6,10.29a5.687,5.687,0,0,1-1.89.168A23.971,23.971,0,0,1,163.8-20.37Zm-20.79-8.9h6.552v9.282H143.01Zm0,21.924V-16.8h6.552v9.45Zm6.552,3.192a8,8,0,0,1-.21,2.058h3.612a8.339,8.339,0,0,1-.21-1.932V-32.466H139.86V-1.722a7.189,7.189,0,0,1-.21,1.89h3.57a7.807,7.807,0,0,1-.21-1.89V-4.158ZM158.8-2.52V-11h13.692V-2.52Z" transform="translate(301.87 52.99)" fill="#fff"/>
  </g>
</svg>
