<svg id="shacho_message_mobile" xmlns="http://www.w3.org/2000/svg" xmlns:xlink="http://www.w3.org/1999/xlink" width="590.938" height="190.313" viewBox="0 0 590.938 190.313">
  <defs>
    <linearGradient id="linear-gradient" x1="1.058" y1="0.532" x2="0.013" y2="0.526" gradientUnits="objectBoundingBox">
      <stop offset="0" stop-color="#a1de64"/>
      <stop offset="1" stop-color="#3fc26f"/>
    </linearGradient>
    <filter id="Path_63" x="24.825" y="46.522" width="367.301" height="104.162" filterUnits="userSpaceOnUse">
      <feOffset dy="3" input="SourceAlpha"/>
      <feGaussianBlur stdDeviation="3" result="blur"/>
      <feFlood flood-opacity="0.161"/>
      <feComposite operator="in" in2="blur"/>
      <feComposite in="SourceGraphic"/>
    </filter>
  </defs>
  <g id="shacho_message">
    <path id="Path_1" data-name="Path 1" d="M0,0H590.938L502,190.313H0Z" opacity="0.82" fill="url(#linear-gradient)"/>
    <g transform="matrix(1, 0, 0, 1, 0, 0)" filter="url(#Path_63)">
      <path id="Path_63-2" data-name="Path 63" d="M31.482-8.019v-12.8H22.539v-4.719a7.113,7.113,0,0,1,.165-1.683h-2.97a7.937,7.937,0,0,1,.165,1.683v4.719H10.923v12.8a6.2,6.2,0,0,1-.165,1.551h2.97a8.475,8.475,0,0,1-.165-1.881H19.9V.561a5.468,5.468,0,0,1-.165,1.584H22.7A7.937,7.937,0,0,1,22.539.462V-8.349h6.336a8.093,8.093,0,0,1-.2,1.881h3A3.993,3.993,0,0,1,31.482-8.019Zm-8.943-10.2h6.336v7.227H22.539Zm-8.976,0H19.9v7.227H13.563ZM7.788-28.05A45.8,45.8,0,0,1,.825-12.87l1.716,2.475a44.7,44.7,0,0,0,2.871-4.983V.561a8.674,8.674,0,0,1-.165,1.551H8.085A4.381,4.381,0,0,1,7.92.561v-21.45q1.221-2.871,2.508-6.3ZM44.847-10.725h8.646v2.112H44.847Zm0,6.567V-6.27h8.646v2.112ZM56-1.98V-13.233H42.339V-1.98a5.294,5.294,0,0,1-.165,1.749h2.838a9.19,9.19,0,0,1-.165-1.386h8.646L53.328-.231h2.838A5.294,5.294,0,0,1,56-1.98ZM45.045-17.589H37.686v-1.98h7.359Zm-7.359-6.633h7.359v2.277H37.686Zm9.867-2.508H35.211V.693a5.5,5.5,0,0,1-.165,1.452h2.805A5.984,5.984,0,0,1,37.686.693V-15.081h9.867Zm5.907,9.141v-1.98h7.326v1.98ZM56.43-.825l1.056,3h3.63A1.925,1.925,0,0,0,63.294,0V-26.73H50.952v11.649h9.834V-.99q0,.825-.99.825A14.768,14.768,0,0,1,56.43-.825Zm-3-21.12v-2.277h7.359v2.277Zm37.818,4.983L89.826-19.8a60.385,60.385,0,0,1-5.742,2.64q-2.442.924-4.752,1.947a110,110,0,0,1-2.409-10.758l-3.069.4.33.99a101.447,101.447,0,0,1,2.772,10.263Q70.95-10.2,70.95-6.5q0,6.6,10.2,6.6.693,0,9.273-.594l.66-3.036a45.9,45.9,0,0,1-9.7.957q-5.28,0-6.6-1.881A3.11,3.11,0,0,1,73.986-6.8v-.1Q73.986-12.144,91.245-16.962Zm18.942,5.445a33.955,33.955,0,0,0,4.356-7.59h2.31V.825a6.1,6.1,0,0,1-.132,1.32h2.805a5.837,5.837,0,0,1-.165-1.419v-6.2h8.151a7.839,7.839,0,0,1,1.947.165V-8.151a6.472,6.472,0,0,1-1.98.165h-8.118v-4.158h7.788a7,7,0,0,1,1.881.165v-2.838a8.8,8.8,0,0,1-1.98.165h-7.689v-4.455h8.91a5.677,5.677,0,0,1,1.584.165V-21.78a8.071,8.071,0,0,1-1.65.165H115.5q.594-1.716,1.056-3.432a15.382,15.382,0,0,1,.528-1.782l-2.475-.759q-1.848,8.745-6.5,13.7Zm-3.993-16.2a45.8,45.8,0,0,1-6.963,15.18l1.914,2.475a38.632,38.632,0,0,0,2.673-4.587V.561a8.674,8.674,0,0,1-.165,1.551h2.838a4.381,4.381,0,0,1-.165-1.551V-20.064q1.32-3.069,2.706-6.8Zm48.972,19.3A5.672,5.672,0,0,1,151.4-2.937a5.676,5.676,0,0,0-2.574-4.257,6.032,6.032,0,0,0-3.366-.99q-6.3,0-6.3,4.422Q139.227.594,146.19.594a18.458,18.458,0,0,0,3.7-.462,11.414,11.414,0,0,0,6.7-3.96,7.561,7.561,0,0,0,1.551-4.422,6.276,6.276,0,0,0-1.617-4.125q-2.475-2.739-8.547-2.739a9.543,9.543,0,0,0-4.026,1.287l10.395-8.811-2.277-2.211a30.179,30.179,0,0,1-7.062.627,40.644,40.644,0,0,1-7.062-.462l.264,2.9L142-21.813q4.917-.231,8.25-.561a60.6,60.6,0,0,1-11.418,9.57,23.9,23.9,0,0,1-4.752,2.706l2.574,2.475a32.061,32.061,0,0,1,3.894-3.069,11.309,11.309,0,0,1,6.567-2.343Q155.166-13.035,155.166-8.415ZM145.6-5.874q2.871,0,3.366,2.244,0,.165.165,1.386a10.9,10.9,0,0,1-3.1.528q-4.191,0-4.191-2.211Q141.867-5.874,145.6-5.874ZM189.42,2.739l2.97-1.155-1.749-2.673a51.034,51.034,0,0,0-3.432-4.323l-2.178-2.31-2.442,1.353,1.287,1.155q.594.528,1.947,2.013A68.746,68.746,0,0,1,175.4-2.013a24.9,24.9,0,0,0,3.4-6.336H191.5a6.134,6.134,0,0,1,1.485.165v-2.9a6.134,6.134,0,0,1-1.485.165H168.168a5.5,5.5,0,0,1-1.452-.165v2.9a5.984,5.984,0,0,1,1.452-.165h7.788a23.87,23.87,0,0,1-4.092,6.468,9.719,9.719,0,0,1-2.178.1,27.428,27.428,0,0,1-3.135-.132l1.056,3.234a3.845,3.845,0,0,1,1.452-.2q1.188,0,4.719-.2,6.5-.594,13.86-1.914Q189.42,1.584,189.42,2.739Zm-3.366-17.49a4.312,4.312,0,0,1,1.221.165v-2.937a4.238,4.238,0,0,1-1.518.165H173.943a4.238,4.238,0,0,1-1.518-.165v2.937h.066a5.984,5.984,0,0,1,1.452-.165Zm9.306-2.178A36.755,36.755,0,0,1,181.467-27.06h-3.2a37.126,37.126,0,0,1-13.926,10.4l1.683,2.673q9.174-5.148,13.662-10.593h.33a53.376,53.376,0,0,0,13.728,10.56Zm30.459,2.574a4.1,4.1,0,0,1,1.221.165v-2.8a12.769,12.769,0,0,1-2.211.132h-4.455v-8.778a7.593,7.593,0,0,1,.165-1.551h-2.8a6.4,6.4,0,0,1,.165,1.485v8.844h-5.148a3.457,3.457,0,0,1-1.518-.165v2.838a10.263,10.263,0,0,1,2.211-.165H217.9V-1.782h-6.7l-1.452-.132v2.8a5.837,5.837,0,0,1,1.419-.165h15.279a3.365,3.365,0,0,1,1.419.165v-2.8a5.929,5.929,0,0,1-1.287.132h-6.2V-14.355Zm-14.487,5.28a6.488,6.488,0,0,1-1.287-.858l-3.7-3.036a30.025,30.025,0,0,0,3.531-4.917A18.012,18.012,0,0,0,211-20.031l-1.716-1.98h-3.5v-3.4a8.192,8.192,0,0,1,.132-1.848h-2.8a3.856,3.856,0,0,1,.165,1.155v4.092h-3.036a6.289,6.289,0,0,1-1.518-.165v2.805a10.871,10.871,0,0,1,1.914-.165H208A29.531,29.531,0,0,1,197.01-8.184l1.782,2.739,4.488-4.191V.594a6.552,6.552,0,0,1-.165,1.518h2.8L205.788.495V-10.131l4.092,4.29Zm31.778-1.649Q236-7.308,236-4.452,236-.364,240.59.392a26.042,26.042,0,0,0,4,.252q2.408,0,5.852-.308l.14-2.716a32.25,32.25,0,0,1-5.908.784,32.362,32.362,0,0,1-3.892-.224q-2.3-.28-2.3-2.3,0-1.652,3.752-3.78Q243-8.26,243.7-8.568a12.937,12.937,0,0,1,.084,1.624,16.552,16.552,0,0,1-.28,2.6l2.492-.42a37.049,37.049,0,0,0-.336-4.648,25.4,25.4,0,0,1,6.888-2.212l-1.288-2.324a62.762,62.762,0,0,0-6.132,2.324q-.168-.392-.336-.728a4.441,4.441,0,0,0-4.06-2.3,4.147,4.147,0,0,0-1.372.224,28.349,28.349,0,0,0,1.344-2.856,74.8,74.8,0,0,0,8.008-.756l-.028-2.408a19.735,19.735,0,0,1-6.076,1.036l-1.12.112a34.752,34.752,0,0,0,1.148-4.312l-2.38-.532a32.6,32.6,0,0,1-1.344,4.956h-.84a14.639,14.639,0,0,1-4.368-.392l.2,2.548q.336-.028,4.2-.14a23.4,23.4,0,0,1-5.488,7.672l2.072,1.512a32.735,32.735,0,0,0,3.08-3.808,5.95,5.95,0,0,1,3.052-1.008Q242.186-12.8,243.11-10.724Zm36.4-11.312H261.282V.448a6.616,6.616,0,0,1-.112,1.288h2.38A8.038,8.038,0,0,1,263.41,0h13.972a7.361,7.361,0,0,1-.14,1.736h2.408a3.842,3.842,0,0,1-.14-1.344ZM263.41-2.128v-4.62h13.972v4.62Zm0-11.368h13.972V-8.9H263.41Zm0-6.44h13.972v4.312H263.41ZM285.922-1.008a13.973,13.973,0,0,1,1.26,2.772h2.1q2.212,0,2.212-1.988V-9.072q1.484-.5,2.94-1.036v-2.184l-2.94.952v-4.788h1.988a3.373,3.373,0,0,1,1.008.14V-18.4a5.336,5.336,0,0,1-1.288.14h-1.708v-3.472a3.967,3.967,0,0,1,.14-1.372h-2.408a3.967,3.967,0,0,1,.14,1.372v3.472h-1.848a7.418,7.418,0,0,1-1.848-.14v2.408a5.089,5.089,0,0,1,1.764-.14h1.932v5.4a25.988,25.988,0,0,1-4.676,1.232l1.708,2.52q1.484-.7,2.968-1.372V-.9q0,.588-.616.588A6.765,6.765,0,0,1,285.922-1.008ZM298.27-8.6h9.436V-6.02H298.27Zm0,7.364V-3.92h9.436v2.688ZM296,1.82h2.408A4.865,4.865,0,0,1,298.27.7h9.436a7.059,7.059,0,0,1-.14,1.12h2.38a6.616,6.616,0,0,1-.112-1.288V-10.612H296.142V.56A3.477,3.477,0,0,1,296,1.82Zm12.32-14.392a1.479,1.479,0,0,0,1.176-.42,6.809,6.809,0,0,0,1.372-3.332l.14-1.26-2.24-1.092.056,1.064a6.071,6.071,0,0,1-.5,2.884q-.056.168-.56.168H299a1.827,1.827,0,0,1-.756-.112q-.2-.084-.252-2.128a34.775,34.775,0,0,0,10.388-2.688l1.568-.588-2.016-1.68a26.2,26.2,0,0,1-9.94,3.164v-3.276A5.315,5.315,0,0,1,298.1-23.1h-2.38a5.336,5.336,0,0,1,.14,1.288v7.476q0,1.764,2.044,1.764ZM326.774.168q4.62,0,7.42-5.18a13.362,13.362,0,0,0,1.26-3.752L334-10.752q-1.932,8.736-7.224,8.736-5.516,0-5.656-5.236-.028-1.4-.028-4.032t.308-5.74q.308-3.108.616-4.564L319.3-22.4q.084,1.064.084,3.164t-.2,6.076q-.224,3.948-.224,5.04Q318.99.168,326.326.168ZM342.65-4.116a36.386,36.386,0,0,1,5.124,5.852l2.352-1.68q-1.092-1.96-5.544-5.432ZM12.88,57.9h2.38a5.559,5.559,0,0,1-.14-1.288V50.68h7.056v3q0,.644-.728.644a10.268,10.268,0,0,1-2.912-.42l1.2,2.52h2.94q1.6,0,1.6-1.456V48.748H15.12V46.48h3.92a3.259,3.259,0,0,1-.14,1.064h2.408a2.616,2.616,0,0,1-.14-1.2V40.46H7.28v5.88a2.981,2.981,0,0,1-.14,1.2H9.548a6.366,6.366,0,0,1-.14-1.064H13.02v2.268H3.92v6.076A5.747,5.747,0,0,1,3.78,56.2H6.16a6.2,6.2,0,0,1-.14-1.372V50.68h7v5.936A4.924,4.924,0,0,1,12.88,57.9Zm9.968-24.7-2.436-.42a11.27,11.27,0,0,1-2.072,4H15.064v-3.08a2.345,2.345,0,0,1,.14-1.064H12.8a2.128,2.128,0,0,1,.14,1.064v3.08H9.408a16.823,16.823,0,0,0-2.044-3.808l-2.352.672a14.11,14.11,0,0,1,2.1,3.136H1.96v5.1A5.673,5.673,0,0,1,1.82,43.4H4.2a6.066,6.066,0,0,1-.14-1.512V38.724H23.94v3.164A4.957,4.957,0,0,1,23.8,43.4h2.38a6.066,6.066,0,0,1-.14-1.512v-5.1H20.748ZM9.408,44.6V42.392H19.04V44.6ZM33.684,35.14q0,.644-.756,4.956a40.219,40.219,0,0,0-.784,6.888A57.121,57.121,0,0,0,32.816,56l2.492.252v-.028A15.829,15.829,0,0,1,37.716,50.6L35.84,48.888a45.963,45.963,0,0,0-1.4,4.844,25.779,25.779,0,0,1-.392-5.46V48.02a32.59,32.59,0,0,1,.672-6.944,21.705,21.705,0,0,1,1.708-5.348Zm7.028,5.936a14.144,14.144,0,0,1,6.552-1.26h4.564L51.8,37.632H46.9a26.7,26.7,0,0,0-7.168,1.484Zm6.72,13.58q2.6,0,3.808-.084,1.232-.056,1.288-.056V51.94a8.846,8.846,0,0,1-2.3.42,27.157,27.157,0,0,1-2.8.168q-5.516,0-5.516-3.052l-.028-.532a1.863,1.863,0,0,1,.28-.868h-1.82a12.152,12.152,0,0,0-.14,2.016Q40.208,54.656,47.432,54.656ZM79.1,33.964H60.872V56.448a6.617,6.617,0,0,1-.112,1.288h2.38A8.039,8.039,0,0,1,63,56H76.972a7.362,7.362,0,0,1-.14,1.736H79.24a3.841,3.841,0,0,1-.14-1.344ZM63,53.872v-4.62H76.972v4.62ZM63,42.5H76.972V47.1H63Zm0-6.44H76.972v4.312H63ZM94.7,47.656l-1.764.672a29.781,29.781,0,0,1,1.288,6.328l2.212-1.512q-.28-.84-.336-.952a20.777,20.777,0,0,1-.644-2.128A18.1,18.1,0,0,0,94.7,47.656Zm-7.812-.084q-.644,5.768-2.128,7.644l2.044,1.82q.028-.168.224-.812a41.689,41.689,0,0,0,1.652-7.336,3.3,3.3,0,0,1,.252-1.176Zm6.832-3.78q-1.82.364-3.78.7a49.3,49.3,0,0,0,5.908-7.7,6.746,6.746,0,0,1,.812-1.12l-2.492-.56a6.466,6.466,0,0,1-1.008,2.072,29.7,29.7,0,0,1-2.24,3.248l-1.4-1.932a19.263,19.263,0,0,0,2.772-3.78q.252-.476,1.064-1.652L90.8,32.536a11.048,11.048,0,0,1-2.492,4.592q-1.092-1.092-1.092-1.316L84.98,36.96a9.821,9.821,0,0,1,1.652,1.456A28.536,28.536,0,0,1,89.684,42a26.083,26.083,0,0,1-2.436,2.744q-1.26.056-1.764.056l-.924-.056.9,2.38h.028a6.322,6.322,0,0,1,1.736-.308q1.456-.168,2.884-.42V56.672a3.31,3.31,0,0,1-.14,1.036h2.408a5.3,5.3,0,0,1-.14-1.232V46l2.1-.476a9.209,9.209,0,0,1,.336,1.428.565.565,0,0,1-.028.252l2.268-.868a14.051,14.051,0,0,1-1.064-2.408A11.545,11.545,0,0,0,94.5,41.188l-1.9.616A5.49,5.49,0,0,1,93.716,43.792Zm5.656-.364V41.244h7.756v2.184Zm0-6.272h7.756v2.212H99.372Zm.588,11.872a12.638,12.638,0,0,1-5.46,6.244l2.184,1.708q0-.084.644-.672a17.985,17.985,0,0,0,4.032-5.376,10.157,10.157,0,0,0,.532-1.624,19.077,19.077,0,0,0-.84-2.212H97.16a3.074,3.074,0,0,1-1.092-.14v2.212a2.222,2.222,0,0,1,1.092-.14Zm5.432.5a6.79,6.79,0,0,1-1.092-2.1v-2.24h2.8l-.112.728H109.4a4.1,4.1,0,0,1-.14-1.4V35.476h-6.188q1.2-1.064,2.436-2.184l-2.464-.756a8.606,8.606,0,0,1-2.24,2.94H97.244V44.52a5.89,5.89,0,0,1-.14,1.4h2.38q-.056-.336-.084-.728h2.772V55.16q0,.672-1.2.672a5.559,5.559,0,0,1-2.548-.364l1.316,2.324h2.408q2.156,0,2.156-2.044V51.464a23.722,23.722,0,0,0,3.108,3.36l2.212,1.932,1.96-2.016a7.876,7.876,0,0,1-1.624-.784q-2.884-1.988-3.332-2.884a15.6,15.6,0,0,0,3.276-3.024,5.73,5.73,0,0,1,.756-.728l-2.184-1.148A9.885,9.885,0,0,1,105.392,49.532Zm19.264,3.248q0-2.044,2.772-2.044a8.512,8.512,0,0,1,3,.532,3.236,3.236,0,0,1-.392,1.4,3.01,3.01,0,0,1-2.8,1.54Q124.656,54.18,124.656,52.78Zm7.56-.532a6.953,6.953,0,0,1,3.668,2.968l1.652-1.764a15,15,0,0,0-5.152-3.388q.028-.308.028-.784l.084-7.532q2.492-.084,4.452-.28l-.028-2.128q-.308.112-4.452.392v-4.06a3.762,3.762,0,0,1,.056-.672l-2.408-.392a19.177,19.177,0,0,1,.224,3.248v2.1q-2.408.056-4.48.056t-3.248-.112l.56,2.184L126.616,42q3.108-.056,3.78-.084l.028,1.6q.056,4.844.056,5.8a10.414,10.414,0,0,0-2.688-.42,5.9,5.9,0,0,0-3.892,1.148,3.641,3.641,0,0,0-1.344,2.94,3.055,3.055,0,0,0,1.82,2.8,5.677,5.677,0,0,0,2.8.588Q131.068,56.336,132.216,52.248ZM119.5,46.928a18.608,18.608,0,0,0-1.988,6.412,44.861,44.861,0,0,1-.532-5.964,28.516,28.516,0,0,1,1.092-7.672l1.2-4.284-2.464-1.008A9.189,9.189,0,0,1,116.9,35.5a7.668,7.668,0,0,1-.252,1.484,53.072,53.072,0,0,0-1.484,9.912,31.169,31.169,0,0,0,1.4,9.128l2.1.168.028-.028a50.711,50.711,0,0,1,1.288-6.048,8.411,8.411,0,0,1,.9-2.156ZM168.031,35.87a6.134,6.134,0,0,1,1.485.165V33.23a6.249,6.249,0,0,1-1.452.165h-8.91V30.161a4.238,4.238,0,0,1,.165-1.518h-2.838a4.238,4.238,0,0,1,.165,1.518V33.4h-8.877a5.648,5.648,0,0,1-1.485-.165v2.805a6.4,6.4,0,0,1,1.485-.165h8.877v4.785h-11.88a5.8,5.8,0,0,1-1.518-.165v2.805a8.943,8.943,0,0,1,1.65-.132h10.956q-7.062,8.415-13.794,9.372l2.277,3a31.163,31.163,0,0,0,12.309-9.867v11.22a3.372,3.372,0,0,1-.165,1.221h2.838a4.238,4.238,0,0,1-.165-1.518V45.671a35.748,35.748,0,0,0,12.309,9.867l2.277-2.97q-6.732-1.188-13.827-9.4h11.649l.99.132V40.49a6.25,6.25,0,0,1-1.452.165H159.154V35.87Zm32.34-.825a11.541,11.541,0,0,1-3.828,5.742l2.277,1.155a20.239,20.239,0,0,1,1.452-1.716,11.265,11.265,0,0,0,1.848-2.706,15.37,15.37,0,0,1,1.056-1.881Zm-12.408,5.709a22.408,22.408,0,0,0-3.63-5.742l-2.574.594a14.988,14.988,0,0,1,3.63,6.369Zm3.333,5.874V56.891a6.822,6.822,0,0,1-.165,1.221h2.838a4.238,4.238,0,0,1-.165-1.518V46.628a32.132,32.132,0,0,0,10.659,7.953,5,5,0,0,1,1.353.792l2.475-2.871a27.969,27.969,0,0,1-13.662-8.184h11.253a5.424,5.424,0,0,1,1.485.165V41.81a4.779,4.779,0,0,1-1.749.2H193.8V34.517h10.857a4.292,4.292,0,0,1,1.32.165v-2.64a4.919,4.919,0,0,1-1.551.165H193.8V30.194a3.691,3.691,0,0,1,.165-1.386h-2.838a4.238,4.238,0,0,1,.165,1.518v1.881H181.132a5.662,5.662,0,0,1-2.013-.165v2.64a6.86,6.86,0,0,1,2.013-.165H191.3v7.491h-11.88a4.98,4.98,0,0,1-1.683-.165v2.64a4.238,4.238,0,0,1,1.518-.165h11.187a24.743,24.743,0,0,1-13.629,8.25l2.475,2.805A6.5,6.5,0,0,1,181,54.416,29.459,29.459,0,0,0,191.3,46.628Zm42.448,7.412,2.268-1.456-10.92-12.46a2.474,2.474,0,0,0-2.24-1.2,2.9,2.9,0,0,0-2.436,1.232,46.679,46.679,0,0,1-5.656,6.58,13.13,13.13,0,0,1-1.372,1.232l2.352,1.568,6.356-7.924q.364-.5.7-.5a.964.964,0,0,1,.616.224Q231.364,50.736,233.744,54.04Z" transform="translate(33 80.57)" fill="#fff"/>
    </g>
  </g>
</svg>
