<svg xmlns="http://www.w3.org/2000/svg" xmlns:xlink="http://www.w3.org/1999/xlink" width="825.305" height="245" viewBox="0 0 825.305 245">
  <defs>
    <linearGradient id="linear-gradient" x1="1.058" y1="0.532" x2="0.013" y2="0.526" gradientUnits="objectBoundingBox">
      <stop offset="0" stop-color="#a1de64"/>
      <stop offset="1" stop-color="#3fc26f"/>
    </linearGradient>
    <filter id="Path_66" x="40.225" y="62.35" width="539.689" height="129.786" filterUnits="userSpaceOnUse">
      <feOffset dy="3" input="SourceAlpha"/>
      <feGaussianBlur stdDeviation="3" result="blur"/>
      <feFlood flood-opacity="0.161"/>
      <feComposite operator="in" in2="blur"/>
      <feComposite in="SourceGraphic"/>
    </filter>
  </defs>
  <g id="shacho_message_tablet" transform="translate(0 -802)">
    <g id="shacho_message" transform="translate(0 802)">
      <path id="Path_1" data-name="Path 1" d="M0,0H825.3L723.444,245H0Z" opacity="0.82" fill="url(#linear-gradient)"/>
      <g transform="matrix(1, 0, 0, 1, 0, 0)" filter="url(#Path_66)">
        <path id="Path_66-2" data-name="Path 66" d="M46.746-11.907V-30.919H33.467v-7.007a10.562,10.562,0,0,1,.245-2.5H29.3a11.786,11.786,0,0,1,.245,2.5v7.007H16.219v19.012a9.2,9.2,0,0,1-.245,2.3h4.41a12.584,12.584,0,0,1-.245-2.793h9.408V.833A8.119,8.119,0,0,1,29.3,3.185h4.41a11.786,11.786,0,0,1-.245-2.5V-12.4h9.408A12.017,12.017,0,0,1,42.581-9.6H47.04A5.929,5.929,0,0,1,46.746-11.907ZM33.467-27.048h9.408v10.731H33.467Zm-13.328,0h9.408v10.731H20.139Zm-8.575-14.6Q7.791-27.979,1.225-19.11l2.548,3.675a66.366,66.366,0,0,0,4.263-7.4V.833a12.88,12.88,0,0,1-.245,2.3h4.214a6.506,6.506,0,0,1-.245-2.3v-31.85q1.813-4.263,3.724-9.359ZM69.041-15.925H81.879v3.136H69.041Zm0,9.751V-9.31H81.879v3.136ZM85.6-2.94V-19.649H65.317V-2.94a7.86,7.86,0,0,1-.245,2.6h4.214A13.645,13.645,0,0,1,69.041-2.4H81.879L81.634-.343h4.214A7.86,7.86,0,0,1,85.6-2.94ZM69.335-26.117H58.408v-2.94H69.335ZM58.408-35.966H69.335v3.381H58.408ZM73.059-39.69H54.733V1.029a8.162,8.162,0,0,1-.245,2.156h4.165a8.885,8.885,0,0,1-.245-2.156V-22.393H73.059ZM81.83-26.117v-2.94H92.708v2.94ZM86.24-1.225l1.568,4.459H93.2q3.234,0,3.234-3.234V-39.69H78.106v17.3h14.6V-1.47q0,1.225-1.47,1.225A21.928,21.928,0,0,1,86.24-1.225Zm-4.459-31.36v-3.381H92.708v3.381Zm55.664,7.4L135.338-29.4a89.662,89.662,0,0,1-8.526,3.92q-3.626,1.372-7.056,2.891Q116.179-37,116.179-38.563l-4.557.588.49,1.47a150.633,150.633,0,0,1,4.116,15.239q-8.918,6.125-8.918,11.613,0,9.8,15.141,9.8,1.029,0,13.769-.882l.98-4.508a68.161,68.161,0,0,1-14.406,1.421q-7.84,0-9.8-2.793a4.618,4.618,0,0,1-1.176-3.479v-.147Q111.818-18.032,137.445-25.186ZM165.081-17.1a50.417,50.417,0,0,0,6.468-11.27h3.43v29.6a9.052,9.052,0,0,1-.2,1.96h4.165a8.668,8.668,0,0,1-.245-2.107V-8.134h12.1a11.639,11.639,0,0,1,2.891.245V-12.1a9.61,9.61,0,0,1-2.94.245H178.7v-6.174h11.564a10.394,10.394,0,0,1,2.793.245V-22a13.06,13.06,0,0,1-2.94.245H178.7v-6.615h13.23a8.429,8.429,0,0,1,2.352.245V-32.34a11.985,11.985,0,0,1-2.45.245H172.97q.882-2.548,1.568-5.1a22.835,22.835,0,0,1,.784-2.646l-3.675-1.127q-2.744,12.985-9.653,20.335ZM159.152-41.16q-3.773,13.671-10.339,22.54l2.842,3.675a57.359,57.359,0,0,0,3.969-6.811V.833a12.88,12.88,0,0,1-.245,2.3h4.214a6.506,6.506,0,0,1-.245-2.3V-29.792q1.96-4.557,4.018-10.094Zm72.226,28.665q0,5.635-5.586,8.134a8.429,8.429,0,0,0-3.822-6.321,8.957,8.957,0,0,0-5-1.47q-9.359,0-9.359,6.566.1,6.468,10.437,6.468A27.407,27.407,0,0,0,223.538.2a16.949,16.949,0,0,0,9.947-5.88,11.227,11.227,0,0,0,2.3-6.566,9.32,9.32,0,0,0-2.4-6.125q-3.675-4.067-12.691-4.067a14.17,14.17,0,0,0-5.978,1.911l15.435-13.083L226.772-36.9a44.811,44.811,0,0,1-10.486.931,60.35,60.35,0,0,1-10.486-.686l.392,4.312,5.635-.049q7.3-.343,12.25-.833a89.978,89.978,0,0,1-16.954,14.21q-5.145,3.43-7.056,4.018l3.822,3.675a47.605,47.605,0,0,1,5.782-4.557,16.792,16.792,0,0,1,9.751-3.479Q231.378-19.355,231.378-12.495Zm-14.21,3.773q4.263,0,5,3.332,0,.245.245,2.058a16.181,16.181,0,0,1-4.606.784q-6.223,0-6.223-3.283Q211.631-8.722,217.168-8.722ZM281.75,4.067l4.41-1.715-2.6-3.969a75.782,75.782,0,0,0-5.1-6.419l-3.234-3.43-3.626,2.009,1.911,1.715q.882.784,2.891,2.989a102.078,102.078,0,0,1-15.484,1.764,36.964,36.964,0,0,0,5.047-9.408h18.865a9.109,9.109,0,0,1,2.2.245v-4.312a9.109,9.109,0,0,1-2.2.245H250.194a8.163,8.163,0,0,1-2.156-.245v4.312a8.885,8.885,0,0,1,2.156-.245h11.564a35.444,35.444,0,0,1-6.076,9.6,14.43,14.43,0,0,1-3.234.147,40.727,40.727,0,0,1-4.655-.2l1.568,4.8a5.709,5.709,0,0,1,2.156-.294q1.764,0,7.007-.294Q268.177.49,279.1-1.47,281.75,2.352,281.75,4.067Zm-5-25.97a6.4,6.4,0,0,1,1.813.245v-4.361a6.293,6.293,0,0,1-2.254.245H258.769a6.293,6.293,0,0,1-2.254-.245v4.361h.1a8.885,8.885,0,0,1,2.156-.245Zm13.818-3.234A54.576,54.576,0,0,1,269.941-40.18h-4.753q-7.5,9.408-20.678,15.435l2.5,3.969q13.622-7.644,20.286-15.729h.49a79.256,79.256,0,0,0,20.384,15.68Zm44.737,3.822a6.087,6.087,0,0,1,1.813.245v-4.165a18.959,18.959,0,0,1-3.283.2h-6.615V-38.073a11.275,11.275,0,0,1,.245-2.3H323.3a9.5,9.5,0,0,1,.245,2.205v13.132H315.9a5.134,5.134,0,0,1-2.254-.245v4.214a15.238,15.238,0,0,1,3.283-.245h6.615V-2.646H313.6l-2.156-.2V1.323a8.668,8.668,0,0,1,2.107-.245h22.687a5,5,0,0,1,2.107.245V-2.842a8.8,8.8,0,0,1-1.911.2h-9.212V-21.315ZM313.8-13.475a9.634,9.634,0,0,1-1.911-1.274L306.4-19.257a44.583,44.583,0,0,0,5.243-7.3,26.747,26.747,0,0,0,1.666-3.185l-2.548-2.94h-5.194V-37.73a12.162,12.162,0,0,1,.2-2.744H301.6a5.726,5.726,0,0,1,.245,1.715v6.076h-4.508a9.338,9.338,0,0,1-2.254-.245v4.165a16.141,16.141,0,0,1,2.842-.245h10.927A43.85,43.85,0,0,1,292.53-12.152l2.646,4.067,6.664-6.223V.882a9.728,9.728,0,0,1-.245,2.254h4.165l-.2-2.4V-15.043l6.076,6.37Zm46.914-2.611q-10.668,5.124-10.668,9.408,0,6.132,6.888,7.266a39.062,39.062,0,0,0,6.006.378q3.612,0,8.778-.462l.21-4.074a48.374,48.374,0,0,1-8.862,1.176,48.543,48.543,0,0,1-5.838-.336q-3.444-.42-3.444-3.444,0-2.478,5.628-5.67,1.134-.546,2.184-1.008a19.4,19.4,0,0,1,.126,2.436,24.827,24.827,0,0,1-.42,3.906l3.738-.63a55.579,55.579,0,0,0-.5-6.972q7.266-3.108,10.332-3.318l-1.932-3.486a94.143,94.143,0,0,0-9.2,3.486q-.252-.588-.5-1.092a6.662,6.662,0,0,0-6.09-3.444,6.22,6.22,0,0,0-2.058.336,42.531,42.531,0,0,0,2.016-4.284,112.2,112.2,0,0,0,12.012-1.134l-.042-3.612q-2.52,1.134-9.114,1.554l-1.68.168A52.131,52.131,0,0,0,360-35.406l-3.57-.8a48.9,48.9,0,0,1-2.016,7.434h-1.26q-5.124,0-6.552-.588l.294,3.822q.5-.042,6.3-.21a35.1,35.1,0,0,1-8.232,11.508l3.108,2.268a49.1,49.1,0,0,0,4.62-5.712,8.925,8.925,0,0,1,4.578-1.512Q359.324-19.194,360.71-16.086Zm55.02-16.968H388.388V.672A9.926,9.926,0,0,1,388.22,2.6h3.57a12.06,12.06,0,0,1-.21-2.6h20.958a11.044,11.044,0,0,1-.21,2.6h3.612a5.761,5.761,0,0,1-.21-2.016ZM391.58-3.192v-6.93h20.958v6.93Zm0-17.052h20.958v6.888H391.58Zm0-9.66h20.958v6.468H391.58ZM425.768-1.512a20.958,20.958,0,0,1,1.89,4.158h3.15q3.318,0,3.318-2.982V-13.608q2.226-.756,4.41-1.554v-3.276l-4.41,1.428v-7.182h2.982a5.06,5.06,0,0,1,1.512.21v-3.612a8,8,0,0,1-1.932.21h-2.562v-5.208a5.95,5.95,0,0,1,.21-2.058h-3.612a5.951,5.951,0,0,1,.21,2.058v5.208h-2.772a11.127,11.127,0,0,1-2.772-.21v3.612a7.634,7.634,0,0,1,2.646-.21h2.9v8.106a38.981,38.981,0,0,1-7.014,1.848l2.562,3.78q2.226-1.05,4.452-2.058V-1.344q0,.882-.924.882A10.147,10.147,0,0,1,425.768-1.512ZM444.29-12.894h14.154V-9.03H444.29Zm0,11.046V-5.88h14.154v4.032Zm-3.4,4.578H444.5a7.3,7.3,0,0,1-.21-1.68h14.154a10.593,10.593,0,0,1-.21,1.68h3.57A9.926,9.926,0,0,1,461.636.8V-15.918H441.1V.84A5.215,5.215,0,0,1,440.888,2.73Zm18.48-21.588a2.219,2.219,0,0,0,1.764-.63,10.213,10.213,0,0,0,2.058-5l.21-1.89-3.36-1.638.084,1.6a9.106,9.106,0,0,1-.756,4.326q-.084.252-.84.252H445.382a2.741,2.741,0,0,1-1.134-.168q-.294-.126-.378-3.192a52.162,52.162,0,0,0,15.582-4.032l2.352-.882-3.024-2.52a39.294,39.294,0,0,1-14.91,4.746V-32.8a7.974,7.974,0,0,1,.168-1.848h-3.57a8,8,0,0,1,.21,1.932V-21.5q0,2.646,3.066,2.646Zm28.1,19.11q6.93,0,11.13-7.77a20.043,20.043,0,0,0,1.89-5.628L498.3-16.128q-2.9,13.1-10.836,13.1-8.274,0-8.484-7.854-.042-2.1-.042-6.048t.462-8.61q.462-4.662.924-6.846L476.252-33.6q.126,1.6.126,4.746t-.294,9.114q-.336,5.922-.336,7.56Q475.79.252,486.794.252ZM511.7-6.174A54.581,54.581,0,0,1,519.386,2.6l3.528-2.52q-1.638-2.94-8.316-8.148ZM19.32,69.856h3.57a8.338,8.338,0,0,1-.21-1.932v-8.9H33.264v4.494q0,.966-1.092.966a15.4,15.4,0,0,1-4.368-.63l1.806,3.78h4.41q2.394,0,2.394-2.184V56.122H22.68v-3.4h5.88a4.888,4.888,0,0,1-.21,1.6h3.612a3.924,3.924,0,0,1-.21-1.806V43.69H10.92v8.82a4.471,4.471,0,0,1-.21,1.806h3.612a9.548,9.548,0,0,1-.21-1.6H19.53v3.4H5.88v9.114a8.621,8.621,0,0,1-.21,2.058H9.24a9.3,9.3,0,0,1-.21-2.058V59.02h10.5v8.9A7.386,7.386,0,0,1,19.32,69.856ZM34.272,32.812l-3.654-.63a16.905,16.905,0,0,1-3.108,6.006H22.6v-4.62a3.517,3.517,0,0,1,.21-1.6H19.194a3.193,3.193,0,0,1,.21,1.6v4.62H14.112a25.234,25.234,0,0,0-3.066-5.712L7.518,33.484a21.165,21.165,0,0,1,3.15,4.7H2.94v7.644A8.509,8.509,0,0,1,2.73,48.1H6.3a9.1,9.1,0,0,1-.21-2.268V41.086H35.91v4.746A7.435,7.435,0,0,1,35.7,48.1h3.57a9.1,9.1,0,0,1-.21-2.268V38.188H31.122ZM14.112,49.906V46.588H28.56v3.318Zm36.414-14.2q0,.966-1.134,7.434a60.328,60.328,0,0,0-1.176,10.332A85.681,85.681,0,0,0,49.224,67l3.738.378v-.042a23.744,23.744,0,0,1,3.612-8.442L53.76,56.332a68.944,68.944,0,0,0-2.1,7.266,38.668,38.668,0,0,1-.588-8.19V55.03A48.885,48.885,0,0,1,52.08,44.614q1.554-6.51,2.562-8.022Zm10.542,8.9q3.57-1.89,9.828-1.89h6.846L77.7,39.448H70.35q-3.612,0-10.752,2.226Zm10.08,20.37q3.906,0,5.712-.126,1.848-.084,1.932-.084V60.91a13.268,13.268,0,0,1-3.444.63,40.736,40.736,0,0,1-4.2.252q-8.274,0-8.274-4.578l-.042-.8a2.794,2.794,0,0,1,.42-1.3h-2.73a18.228,18.228,0,0,0-.21,3.024Q60.312,64.984,71.148,64.984Zm47.5-31.038H91.308V67.672A9.926,9.926,0,0,1,91.14,69.6h3.57A12.059,12.059,0,0,1,94.5,67h20.958a11.043,11.043,0,0,1-.21,2.6h3.612a5.762,5.762,0,0,1-.21-2.016ZM94.5,63.808v-6.93h20.958v6.93Zm0-17.052h20.958v6.888H94.5Zm0-9.66h20.958v6.468H94.5Zm47.544,17.388L139.4,55.492a44.672,44.672,0,0,1,1.932,9.492l3.318-2.268q-.42-1.26-.5-1.428a31.171,31.171,0,0,1-.966-3.192A27.151,27.151,0,0,0,142.044,54.484Zm-11.718-.126q-.966,8.652-3.192,11.466l3.066,2.73q.042-.252.336-1.218a62.534,62.534,0,0,0,2.478-11,4.947,4.947,0,0,1,.378-1.764Zm10.248-5.67q-2.73.546-5.67,1.05a73.944,73.944,0,0,0,8.862-11.55,10.119,10.119,0,0,1,1.218-1.68l-3.738-.84a9.7,9.7,0,0,1-1.512,3.108,44.551,44.551,0,0,1-3.36,4.872l-2.1-2.9a28.9,28.9,0,0,0,4.158-5.67q.378-.714,1.6-2.478l-3.822-.8q-.5,2.856-3.738,6.888-1.638-1.638-1.638-1.974l-3.36,1.722a14.731,14.731,0,0,1,2.478,2.184A42.8,42.8,0,0,1,134.526,46a39.126,39.126,0,0,1-3.654,4.116q-1.89.084-2.646.084l-1.386-.084,1.344,3.57h.042a9.483,9.483,0,0,1,2.6-.462q2.184-.252,4.326-.63V68.008a4.964,4.964,0,0,1-.21,1.554h3.612a7.954,7.954,0,0,1-.21-1.848V52.006l3.15-.714a13.813,13.813,0,0,1,.5,2.142.848.848,0,0,1-.042.378l3.4-1.3a21.077,21.077,0,0,1-1.6-3.612,17.317,17.317,0,0,0-2.016-4.116l-2.856.924A8.235,8.235,0,0,1,140.574,48.688Zm8.484-.546V44.866h11.634v3.276Zm0-9.408h11.634v3.318H149.058Zm.882,17.808q-3.024,6.636-8.19,9.366l3.276,2.562q0-.126.966-1.008A26.977,26.977,0,0,0,152.04,59.4a15.235,15.235,0,0,0,.8-2.436,28.615,28.615,0,0,0-1.26-3.318H145.74a4.611,4.611,0,0,1-1.638-.21v3.318a3.333,3.333,0,0,1,1.638-.21Zm8.148.756a10.185,10.185,0,0,1-1.638-3.15v-3.36h4.2l-.168,1.092h3.612a6.143,6.143,0,0,1-.21-2.1V36.214H154.6q1.806-1.6,3.654-3.276l-3.7-1.134q-.294,1.3-3.36,4.41h-5.334V49.78a8.835,8.835,0,0,1-.21,2.1h3.57q-.084-.5-.126-1.092h4.158V65.74q0,1.008-1.806,1.008a8.339,8.339,0,0,1-3.822-.546l1.974,3.486h3.612q3.234,0,3.234-3.066V60.2a35.584,35.584,0,0,0,4.662,5.04l3.318,2.9,2.94-3.024a11.815,11.815,0,0,1-2.436-1.176q-4.326-2.982-5-4.326a23.4,23.4,0,0,0,4.914-4.536,8.6,8.6,0,0,1,1.134-1.092l-3.276-1.722A14.828,14.828,0,0,1,158.088,57.3Zm28.9,4.872q0-3.066,4.158-3.066a12.768,12.768,0,0,1,4.494.8,4.854,4.854,0,0,1-.588,2.1,4.516,4.516,0,0,1-4.2,2.31Q186.984,64.27,186.984,62.17Zm11.34-.8a10.429,10.429,0,0,1,5.5,4.452l2.478-2.646q-1.89-2.352-7.728-5.082.042-.462.042-1.176l.126-11.3q3.738-.126,6.678-.42l-.042-3.192q-.462.168-6.678.588v-6.09a5.644,5.644,0,0,1,.084-1.008l-3.612-.588a28.767,28.767,0,0,1,.336,4.872v3.15q-3.612.084-6.72.084t-4.872-.168l.84,3.276L189.924,46q4.662-.084,5.67-.126l.042,2.394q.084,7.266.084,8.694a15.621,15.621,0,0,0-4.032-.63,8.854,8.854,0,0,0-5.838,1.722,5.462,5.462,0,0,0-2.016,4.41,4.582,4.582,0,0,0,2.73,4.2,8.516,8.516,0,0,0,4.2.882Q196.6,67.5,198.324,61.372Zm-19.068-7.98a27.913,27.913,0,0,0-2.982,9.618,67.293,67.293,0,0,1-.8-8.946,42.773,42.773,0,0,1,1.638-11.508l1.806-6.426-3.7-1.512a13.784,13.784,0,0,1,.126,1.638,11.5,11.5,0,0,1-.378,2.226q-2.226,10.248-2.226,14.868a46.754,46.754,0,0,0,2.1,13.692l3.15.252.042-.042a76.072,76.072,0,0,1,1.932-9.072,12.616,12.616,0,0,1,1.344-3.234ZM251.643,37.11a9.108,9.108,0,0,1,2.205.245V33.19a9.28,9.28,0,0,1-2.156.245h-13.23v-4.8a6.293,6.293,0,0,1,.245-2.254h-4.214a6.293,6.293,0,0,1,.245,2.254v4.8H221.557a8.387,8.387,0,0,1-2.205-.245v4.165a9.5,9.5,0,0,1,2.205-.245h13.181v7.1H217.1a8.617,8.617,0,0,1-2.254-.245v4.165a13.278,13.278,0,0,1,2.45-.2h16.268Q223.076,60.434,213.08,61.855l3.381,4.459a46.273,46.273,0,0,0,18.277-14.651v16.66a5.008,5.008,0,0,1-.245,1.813h4.214a6.293,6.293,0,0,1-.245-2.254V51.663a53.081,53.081,0,0,0,18.277,14.651l3.381-4.41q-10-1.764-20.531-13.965h17.3l1.47.2V43.97a9.28,9.28,0,0,1-2.156.245H238.462v-7.1Zm48.02-1.225a17.137,17.137,0,0,1-5.684,8.526l3.381,1.715a30.055,30.055,0,0,1,2.156-2.548,16.726,16.726,0,0,0,2.744-4.018,22.819,22.819,0,0,1,1.568-2.793Zm-18.424,8.477a33.274,33.274,0,0,0-5.39-8.526l-3.822.882a22.255,22.255,0,0,1,5.39,9.457Zm4.949,8.722V68.323a10.132,10.132,0,0,1-.245,1.813h4.214a6.293,6.293,0,0,1-.245-2.254v-14.8a47.71,47.71,0,0,0,15.827,11.809,7.427,7.427,0,0,1,2.009,1.176l3.675-4.263a41.53,41.53,0,0,1-20.286-12.152h16.709a8.054,8.054,0,0,1,2.205.245V45.93a7.1,7.1,0,0,1-2.6.294H289.912V35.1h16.121a6.373,6.373,0,0,1,1.96.245v-3.92a7.3,7.3,0,0,1-2.3.245H289.912V28.682a5.48,5.48,0,0,1,.245-2.058h-4.214a6.293,6.293,0,0,1,.245,2.254v2.793H271.1a8.408,8.408,0,0,1-2.989-.245v3.92A10.186,10.186,0,0,1,271.1,35.1h15.092V46.224h-17.64a7.394,7.394,0,0,1-2.5-.245V49.9a6.293,6.293,0,0,1,2.254-.245h16.611q-7.35,9.016-20.237,12.25l3.675,4.165a9.647,9.647,0,0,1,2.548-1.421A43.742,43.742,0,0,0,286.188,53.084ZM349.566,64.06l3.4-2.184-16.38-18.69a3.711,3.711,0,0,0-3.36-1.806,4.348,4.348,0,0,0-3.654,1.848,70.017,70.017,0,0,1-8.484,9.87,19.7,19.7,0,0,1-2.058,1.848L322.56,57.3l9.534-11.886q.546-.756,1.05-.756a1.446,1.446,0,0,1,.924.336Q346,59.1,349.566,64.06Z" transform="translate(48 110)" fill="#fff"/>
      </g>
    </g>
  </g>
</svg>
