<svg xmlns="http://www.w3.org/2000/svg" xmlns:xlink="http://www.w3.org/1999/xlink" width="1131.374" height="245" viewBox="0 0 1131.374 245">
  <defs>
    <linearGradient id="linear-gradient" x1="1.058" y1="0.532" x2="0.013" y2="0.526" gradientUnits="objectBoundingBox">
      <stop offset="0" stop-color="#a1de64"/>
      <stop offset="1" stop-color="#3fc26f"/>
    </linearGradient>
    <filter id="Path_61" x="175.45" y="47.7" width="636.76" height="151.012" filterUnits="userSpaceOnUse">
      <feOffset dy="3" input="SourceAlpha"/>
      <feGaussianBlur stdDeviation="3" result="blur"/>
      <feFlood flood-opacity="0.161"/>
      <feComposite operator="in" in2="blur"/>
      <feComposite in="SourceGraphic"/>
    </filter>
  </defs>
  <g id="shacho_message" transform="translate(0 -802)">
    <path id="Path_1" data-name="Path 1" d="M0,0H1131.374L991.738,245H0Z" transform="translate(0 802)" opacity="0.82" fill="url(#linear-gradient)"/>
    <g transform="matrix(1, 0, 0, 1, 0, 802)" filter="url(#Path_61)">
      <path id="Path_61-2" data-name="Path 61" d="M55.332-14.094V-36.6H39.614v-8.294a12.5,12.5,0,0,1,.29-2.958h-5.22a13.95,13.95,0,0,1,.29,2.958V-36.6H19.2v22.5a10.893,10.893,0,0,1-.29,2.726h5.22a14.9,14.9,0,0,1-.29-3.306H34.974V.986a9.61,9.61,0,0,1-.29,2.784H39.9a13.95,13.95,0,0,1-.29-2.958V-14.674H50.75a14.225,14.225,0,0,1-.348,3.306H55.68A7.018,7.018,0,0,1,55.332-14.094ZM39.614-32.016H50.75v12.7H39.614Zm-15.776,0H34.974v12.7H23.838ZM13.688-49.3Q9.222-33.118,1.45-22.62l3.016,4.35a78.556,78.556,0,0,0,5.046-8.758V.986a15.246,15.246,0,0,1-.29,2.726H14.21A7.7,7.7,0,0,1,13.92.986v-37.7q2.146-5.046,4.408-11.078ZM81.722-18.85h15.2v3.712h-15.2Zm0,11.542V-11.02h15.2v3.712Zm19.6,3.828V-23.258H77.314V-3.48a9.3,9.3,0,0,1-.29,3.074h4.988a16.152,16.152,0,0,1-.29-2.436h15.2l-.29,2.436h4.988A9.3,9.3,0,0,1,101.326-3.48ZM82.07-30.914H69.136v-3.48H82.07ZM69.136-42.572H82.07v4H69.136ZM86.478-46.98H64.786v48.2A9.662,9.662,0,0,1,64.5,3.77h4.93a10.517,10.517,0,0,1-.29-2.552V-26.506H86.478ZM96.86-30.914v-3.48h12.876v3.48ZM102.08-1.45l1.856,5.278h6.38q3.828,0,3.828-3.828V-46.98H92.452v20.474h17.284V-1.74q0,1.45-1.74,1.45A25.956,25.956,0,0,1,102.08-1.45ZM96.8-38.57v-4h12.934v4Zm65.888,8.758L160.2-34.8A106.128,106.128,0,0,1,150.1-30.16q-4.292,1.624-8.352,3.422-4.234-17.052-4.234-18.908l-5.394.7.58,1.74a178.3,178.3,0,0,1,4.872,18.038q-10.556,7.25-10.556,13.746,0,11.6,17.922,11.6,1.218,0,16.3-1.044l1.16-5.336a80.681,80.681,0,0,1-17.052,1.682q-9.28,0-11.6-3.306a5.466,5.466,0,0,1-1.392-4.118v-.174Q132.356-21.344,162.69-29.812Zm32.712,9.57a59.677,59.677,0,0,0,7.656-13.34h4.06V1.45a10.715,10.715,0,0,1-.232,2.32h4.93a10.259,10.259,0,0,1-.29-2.494v-10.9h14.326a13.777,13.777,0,0,1,3.422.29v-4.988a11.375,11.375,0,0,1-3.48.29H211.526v-7.308h13.688a12.3,12.3,0,0,1,3.306.29v-4.988a15.459,15.459,0,0,1-3.48.29H211.526v-7.83h15.66a9.977,9.977,0,0,1,2.784.29V-38.28a14.186,14.186,0,0,1-2.9.29H204.74q1.044-3.016,1.856-6.032a27.028,27.028,0,0,1,.928-3.132l-4.35-1.334q-3.248,15.37-11.426,24.07ZM188.384-48.72q-4.466,16.182-12.238,26.68l3.364,4.35a67.9,67.9,0,0,0,4.7-8.062V.986a15.245,15.245,0,0,1-.29,2.726h4.988a7.7,7.7,0,0,1-.29-2.726v-36.25q2.32-5.394,4.756-11.948Zm85.492,33.93q0,6.67-6.612,9.628a9.977,9.977,0,0,0-4.524-7.482,10.6,10.6,0,0,0-5.916-1.74q-11.078,0-11.078,7.772.116,7.656,12.354,7.656a32.441,32.441,0,0,0,6.5-.812q7.656-1.74,11.774-6.96A13.289,13.289,0,0,0,279.1-14.5a11.031,11.031,0,0,0-2.842-7.25q-4.35-4.814-15.022-4.814-2.668,0-7.076,2.262l18.27-15.486-4-3.886a53.042,53.042,0,0,1-12.412,1.1,71.434,71.434,0,0,1-12.412-.812l.464,5.1,6.67-.058q8.642-.406,14.5-.986A106.506,106.506,0,0,1,245.166-22.5q-6.09,4.06-8.352,4.756l4.524,4.35a56.349,56.349,0,0,1,6.844-5.394,19.876,19.876,0,0,1,11.542-4.118Q273.876-22.91,273.876-14.79Zm-16.82,4.466q5.046,0,5.916,3.944,0,.29.29,2.436a19.153,19.153,0,0,1-5.452.928q-7.366,0-7.366-3.886Q250.5-10.324,257.056-10.324ZM333.5,4.814l5.22-2.03-3.074-4.7a89.7,89.7,0,0,0-6.032-7.6l-3.828-4.06-4.292,2.378,2.262,2.03q1.044.928,3.422,3.538A120.827,120.827,0,0,1,308.85-3.538a43.754,43.754,0,0,0,5.974-11.136h22.33a10.781,10.781,0,0,1,2.61.29v-5.1a10.781,10.781,0,0,1-2.61.29H296.148a9.662,9.662,0,0,1-2.552-.29v5.1a10.517,10.517,0,0,1,2.552-.29h13.688a41.953,41.953,0,0,1-7.192,11.368,17.081,17.081,0,0,1-3.828.174,48.206,48.206,0,0,1-5.51-.232l1.856,5.684a6.758,6.758,0,0,1,2.552-.348q2.088,0,8.294-.348Q317.434.58,330.368-1.74,333.5,2.784,333.5,4.814Zm-5.916-30.74a7.578,7.578,0,0,1,2.146.29V-30.8a7.449,7.449,0,0,1-2.668.29H306.3a7.449,7.449,0,0,1-2.668-.29v5.162h.116a10.517,10.517,0,0,1,2.552-.29Zm16.356-3.828A64.6,64.6,0,0,1,319.522-47.56H313.9q-8.874,11.136-24.476,18.27l2.958,4.7Q308.5-33.64,316.39-43.21h.58q9.28,10.266,24.128,18.56Zm52.954,4.524a7.2,7.2,0,0,1,2.146.29v-4.93a22.441,22.441,0,0,1-3.886.232h-7.83V-45.066a13.346,13.346,0,0,1,.29-2.726h-4.93a11.246,11.246,0,0,1,.29,2.61v15.544h-9.048a6.076,6.076,0,0,1-2.668-.29v4.988a18.037,18.037,0,0,1,3.886-.29h7.83v22.1H371.2l-2.552-.232v4.93a10.26,10.26,0,0,1,2.494-.29H398a5.915,5.915,0,0,1,2.494.29v-4.93a10.422,10.422,0,0,1-2.262.232h-10.9v-22.1Zm-25.462,9.28a11.4,11.4,0,0,1-2.262-1.508l-6.5-5.336a52.768,52.768,0,0,0,6.206-8.642,31.653,31.653,0,0,0,1.972-3.77l-3.016-3.48h-6.148V-44.66a14.4,14.4,0,0,1,.232-3.248h-4.93a6.778,6.778,0,0,1,.29,2.03v7.192h-5.336a11.053,11.053,0,0,1-2.668-.29v4.93a19.105,19.105,0,0,1,3.364-.29h12.934q-7.6,13.282-19.314,19.952l3.132,4.814,7.888-7.366V1.044a11.515,11.515,0,0,1-.29,2.668h4.93L361.688.87V-17.806l7.192,7.54Zm55.678-3.2q-12.7,6.1-12.7,11.2,0,7.3,8.2,8.65a46.5,46.5,0,0,0,7.15.45q4.3,0,10.45-.55l.25-4.85a57.589,57.589,0,0,1-10.55,1.4,57.79,57.79,0,0,1-6.95-.4q-4.1-.5-4.1-4.1,0-2.95,6.7-6.75,1.35-.65,2.6-1.2a23.1,23.1,0,0,1,.15,2.9,29.554,29.554,0,0,1-.5,4.65l4.45-.75a66.156,66.156,0,0,0-.6-8.3q8.65-3.7,12.3-3.95l-2.3-4.15a112.073,112.073,0,0,0-10.95,4.15q-.3-.7-.6-1.3a7.931,7.931,0,0,0-7.25-4.1,7.405,7.405,0,0,0-2.45.4,50.628,50.628,0,0,0,2.4-5.1,133.572,133.572,0,0,0,14.3-1.35l-.05-4.3q-3,1.35-10.85,1.85l-2,.2a62.054,62.054,0,0,0,2.05-7.7l-4.25-.95a58.212,58.212,0,0,1-2.4,8.85h-1.5q-6.1,0-7.8-.7l.35,4.55q.6-.05,7.5-.25a41.784,41.784,0,0,1-9.8,13.7l3.7,2.7a58.453,58.453,0,0,0,5.5-6.8,10.625,10.625,0,0,1,5.45-1.8Q425.46-22.85,427.11-19.15Zm65.5-20.2H460.06V.8a11.816,11.816,0,0,1-.2,2.3h4.25a14.356,14.356,0,0,1-.25-3.1h24.95a13.147,13.147,0,0,1-.25,3.1h4.3a6.86,6.86,0,0,1-.25-2.4ZM463.86-3.8v-8.25h24.95V-3.8Zm0-20.3h24.95v8.2H463.86Zm0-11.5h24.95v7.7H463.86Zm40.7,33.8a24.949,24.949,0,0,1,2.25,4.95h3.75q3.95,0,3.95-3.55V-16.2q2.65-.9,5.25-1.85v-3.9l-5.25,1.7V-28.8h3.55a6.024,6.024,0,0,1,1.8.25v-4.3a9.529,9.529,0,0,1-2.3.25h-3.05v-6.2a7.083,7.083,0,0,1,.25-2.45h-4.3a7.084,7.084,0,0,1,.25,2.45v6.2h-3.3a13.247,13.247,0,0,1-3.3-.25v4.3a9.088,9.088,0,0,1,3.15-.25h3.45v9.65a46.406,46.406,0,0,1-8.35,2.2l3.05,4.5q2.65-1.25,5.3-2.45V-1.6q0,1.05-1.1,1.05A12.08,12.08,0,0,1,504.56-1.8Zm22.05-13.55h16.85v4.6H526.61Zm0,13.15V-7h16.85v4.8Zm-4.05,5.45h4.3a8.685,8.685,0,0,1-.25-2h16.85a12.608,12.608,0,0,1-.25,2h4.25a11.819,11.819,0,0,1-.2-2.3v-19.9H522.81V1A6.208,6.208,0,0,1,522.56,3.25Zm22-25.7a2.642,2.642,0,0,0,2.1-.75,12.158,12.158,0,0,0,2.45-5.95l.25-2.25-4-1.95.1,1.9a10.841,10.841,0,0,1-.9,5.15q-.1.3-1,.3H527.91a3.263,3.263,0,0,1-1.35-.2q-.35-.15-.45-3.8a62.1,62.1,0,0,0,18.55-4.8l2.8-1.05-3.6-3a46.778,46.778,0,0,1-17.75,5.65v-5.85a9.491,9.491,0,0,1,.2-2.2h-4.25a9.527,9.527,0,0,1,.25,2.3V-25.6q0,3.15,3.65,3.15ZM578.01.3q8.25,0,13.25-9.25a23.862,23.862,0,0,0,2.25-6.7l-2.6-3.55q-3.45,15.6-12.9,15.6-9.85,0-10.1-9.35-.05-2.5-.05-7.2t.55-10.25q.55-5.55,1.1-8.15L564.66-40q.15,1.9.15,5.65t-.35,10.85q-.4,7.05-.4,9Q564.11.3,577.21.3Zm28.85-7.65A64.978,64.978,0,0,1,616.01,3.1l4.2-3q-1.95-3.5-9.9-9.7ZM23,83.4h4.25A9.927,9.927,0,0,1,27,81.1V70.5H39.6v5.35Q39.6,77,38.3,77a18.336,18.336,0,0,1-5.2-.75l2.15,4.5H40.5q2.85,0,2.85-2.6V67.05H27V63h7a5.82,5.82,0,0,1-.25,1.9h4.3a4.671,4.671,0,0,1-.25-2.15V52.25H13v10.5a5.323,5.323,0,0,1-.25,2.15h4.3A11.367,11.367,0,0,1,16.8,63h6.45v4.05H7V77.9a10.263,10.263,0,0,1-.25,2.45H11a11.076,11.076,0,0,1-.25-2.45V70.5h12.5V81.1A8.793,8.793,0,0,1,23,83.4ZM40.8,39.3l-4.35-.75a20.125,20.125,0,0,1-3.7,7.15H26.9V40.2a4.187,4.187,0,0,1,.25-1.9h-4.3a3.8,3.8,0,0,1,.25,1.9v5.5H16.8a30.04,30.04,0,0,0-3.65-6.8l-4.2,1.2a25.2,25.2,0,0,1,3.75,5.6H3.5v9.1a10.13,10.13,0,0,1-.25,2.7H7.5a10.833,10.833,0,0,1-.25-2.7V49.15h35.5V54.8a8.852,8.852,0,0,1-.25,2.7h4.25a10.832,10.832,0,0,1-.25-2.7V45.7H37.05Zm-24,20.35V55.7H34v3.95Zm43.35-16.9q0,1.15-1.35,8.85a71.82,71.82,0,0,0-1.4,12.3A102,102,0,0,0,58.6,80l4.45.45V80.4a28.266,28.266,0,0,1,4.3-10.05L64,67.3a82.075,82.075,0,0,0-2.5,8.65,46.033,46.033,0,0,1-.7-9.75v-.45A58.2,58.2,0,0,1,62,53.35q1.85-7.75,3.05-9.55ZM72.7,53.35q4.25-2.25,11.7-2.25h8.15l-.05-3.9H83.75q-4.3,0-12.8,2.65Zm12,24.25q4.65,0,6.8-.15,2.2-.1,2.3-.1v-4.6a15.8,15.8,0,0,1-4.1.75,48.493,48.493,0,0,1-5,.3q-9.85,0-9.85-5.45l-.05-.95a3.326,3.326,0,0,1,.5-1.55H72.05a21.7,21.7,0,0,0-.25,3.6Q71.8,77.6,84.7,77.6Zm56.55-36.95H108.7V80.8a11.817,11.817,0,0,1-.2,2.3h4.25a14.356,14.356,0,0,1-.25-3.1h24.95a13.146,13.146,0,0,1-.25,3.1h4.3a6.859,6.859,0,0,1-.25-2.4ZM112.5,76.2V67.95h24.95V76.2Zm0-20.3h24.95v8.2H112.5Zm0-11.5h24.95v7.7H112.5Zm56.6,20.7-3.15,1.2a53.18,53.18,0,0,1,2.3,11.3l3.95-2.7q-.5-1.5-.6-1.7a37.1,37.1,0,0,1-1.15-3.8A32.325,32.325,0,0,0,169.1,65.1Zm-13.95-.15q-1.15,10.3-3.8,13.65L155,81.85q.05-.3.4-1.45a74.444,74.444,0,0,0,2.95-13.1,5.89,5.89,0,0,1,.45-2.1Zm12.2-6.75q-3.25.65-6.75,1.25A88.029,88.029,0,0,0,171.15,45.7a12.046,12.046,0,0,1,1.45-2l-4.45-1q0,.75-1.8,3.7a53.04,53.04,0,0,1-4,5.8l-2.5-3.45A34.4,34.4,0,0,0,164.8,42q.45-.85,1.9-2.95l-4.55-.95q-.6,3.4-4.45,8.2-1.95-1.95-1.95-2.35l-4,2.05a17.537,17.537,0,0,1,2.95,2.6,50.957,50.957,0,0,1,5.45,6.4,46.578,46.578,0,0,1-4.35,4.9q-2.25.1-3.15.1L151,59.9l1.6,4.25h.05a11.289,11.289,0,0,1,3.1-.55q2.6-.3,5.15-.75V81.2a5.91,5.91,0,0,1-.25,1.85h4.3a9.469,9.469,0,0,1-.25-2.2V62.15l3.75-.85a16.443,16.443,0,0,1,.6,2.55,1.009,1.009,0,0,1-.05.45l4.05-1.55a25.091,25.091,0,0,1-1.9-4.3,20.615,20.615,0,0,0-2.4-4.9l-3.4,1.1A9.8,9.8,0,0,1,167.35,58.2Zm10.1-.65v-3.9H191.3v3.9Zm0-11.2H191.3V50.3H177.45Zm1.05,21.2q-3.6,7.9-9.75,11.15l3.9,3.05q0-.15,1.15-1.2a32.116,32.116,0,0,0,7.2-9.6,18.138,18.138,0,0,0,.95-2.9,34.065,34.065,0,0,0-1.5-3.95H173.5a5.49,5.49,0,0,1-1.95-.25V67.8a3.967,3.967,0,0,1,1.95-.25Zm9.7.9a12.125,12.125,0,0,1-1.95-3.75v-4h5l-.2,1.3h4.3a7.312,7.312,0,0,1-.25-2.5V43.35H184.05q2.15-1.9,4.35-3.9L184,38.1q-.35,1.55-4,5.25h-6.35V59.5a10.517,10.517,0,0,1-.25,2.5h4.25q-.1-.6-.15-1.3h4.95V78.5q0,1.2-2.15,1.2-3.55,0-4.55-.65l2.35,4.15h4.3q3.85,0,3.85-3.65V71.9a42.36,42.36,0,0,0,5.55,6l3.95,3.45,3.5-3.6a14.065,14.065,0,0,1-2.9-1.4q-5.15-3.55-5.95-5.15a27.854,27.854,0,0,0,5.85-5.4,10.232,10.232,0,0,1,1.35-1.3l-3.9-2.05A17.653,17.653,0,0,1,188.2,68.45Zm34.4,5.8q0-3.65,4.95-3.65a15.2,15.2,0,0,1,5.35.95,5.779,5.779,0,0,1-.7,2.5,5.376,5.376,0,0,1-5,2.75Q222.6,76.75,222.6,74.25Zm13.5-.95a12.416,12.416,0,0,1,6.55,5.3l2.95-3.15q-2.25-2.8-9.2-6.05.05-.55.05-1.4l.15-13.45q4.45-.15,7.95-.5l-.05-3.8q-.55.2-7.95.7V43.7a6.719,6.719,0,0,1,.1-1.2l-4.3-.7a34.247,34.247,0,0,1,.4,5.8v3.75q-4.3.1-8,.1t-5.8-.2l1,3.9L226.1,55q5.55-.1,6.75-.15l.05,2.85q.1,8.65.1,10.35a18.6,18.6,0,0,0-4.8-.75q-4.5,0-6.95,2.05a6.5,6.5,0,0,0-2.4,5.25,5.455,5.455,0,0,0,3.25,5,10.138,10.138,0,0,0,5,1.05Q234.05,80.6,236.1,73.3Zm-22.7-9.5a33.23,33.23,0,0,0-3.55,11.45,80.108,80.108,0,0,1-.95-10.65,50.92,50.92,0,0,1,1.95-13.7L213,43.25l-4.4-1.8a16.411,16.411,0,0,1,.15,1.95,13.692,13.692,0,0,1-.45,2.65q-2.65,12.2-2.65,17.7a55.659,55.659,0,0,0,2.5,16.3l3.75.3.05-.05a90.557,90.557,0,0,1,2.3-10.8,15.019,15.019,0,0,1,1.6-3.85Zm85.906-19.18a10.782,10.782,0,0,1,2.61.29V39.98a10.984,10.984,0,0,1-2.552.29H283.7V34.586a7.449,7.449,0,0,1,.29-2.668h-4.988a7.449,7.449,0,0,1,.29,2.668V40.27h-15.6a9.928,9.928,0,0,1-2.61-.29v4.93a11.246,11.246,0,0,1,2.61-.29h15.6v8.41h-20.88a10.2,10.2,0,0,1-2.668-.29v4.93a15.717,15.717,0,0,1,2.9-.232H277.9Q265.492,72.228,253.66,73.91l4,5.278q12.354-5.336,21.634-17.342v19.72a5.927,5.927,0,0,1-.29,2.146h4.988a7.449,7.449,0,0,1-.29-2.668v-19.2q9.744,11.774,21.634,17.342l4-5.22q-11.832-2.088-24.3-16.53h20.474l1.74.232V52.74a10.984,10.984,0,0,1-2.552.29h-21V44.62Zm56.84-1.45a20.285,20.285,0,0,1-6.728,10.092l4,2.03a35.576,35.576,0,0,1,2.552-3.016,19.8,19.8,0,0,0,3.248-4.756,27.018,27.018,0,0,1,1.856-3.306ZM334.338,53.2q-3.422-7.076-6.38-10.092l-4.524,1.044a26.343,26.343,0,0,1,6.38,11.194ZM340.2,63.528V81.566a11.99,11.99,0,0,1-.29,2.146h4.988a7.449,7.449,0,0,1-.29-2.668V63.528q6.96,8.236,18.734,13.978a8.792,8.792,0,0,1,2.378,1.392l4.35-5.046a49.158,49.158,0,0,1-24.012-14.384h19.778a9.533,9.533,0,0,1,2.61.29v-4.7a8.4,8.4,0,0,1-3.074.348H344.6V42.242h19.082a7.544,7.544,0,0,1,2.32.29v-4.64a8.646,8.646,0,0,1-2.726.29H344.6V34.644a6.487,6.487,0,0,1,.29-2.436h-4.988a7.449,7.449,0,0,1,.29,2.668v3.306H322.332q-3.248,0-3.538-.29v4.64a12.057,12.057,0,0,1,3.538-.29H340.2V55.408h-20.88a8.752,8.752,0,0,1-2.958-.29v4.64a7.449,7.449,0,0,1,2.668-.29h19.662q-8.7,10.672-23.954,14.5l4.35,4.93a11.418,11.418,0,0,1,3.016-1.682A51.776,51.776,0,0,0,340.2,63.528ZM415.45,76.5l4.05-2.6L400,51.65q-1-1.95-4-2.15a5.177,5.177,0,0,0-4.35,2.2,83.354,83.354,0,0,1-10.1,11.75,23.447,23.447,0,0,1-2.45,2.2l4.2,2.8L394.65,54.3q.65-.9,1.25-.9a1.721,1.721,0,0,1,1.1.4Q411.2,70.6,415.45,76.5Z" transform="translate(183 103)" fill="#fff"/>
    </g>
  </g>
</svg>
